<?xml version="1.0" encoding="UTF-8"?>
<svg width="26px" height="18px" viewBox="0 0 26 18" version="1.1" xmlns="http://www.w3.org/2000/svg" xmlns:xlink="http://www.w3.org/1999/xlink">
    <title>about-icon</title>
    <defs>
        <polygon id="path-1" points="0 0 20.0467127 0 20.0467127 18 0 18"></polygon>
    </defs>
    <g id="Symbols" stroke="none" stroke-width="1" fill="none" fill-rule="evenodd">
        <g id="mobile-about-active" transform="translate(-23.000000, -18.000000)">
            <g id="about-icon" transform="translate(23.000000, 18.000000)">
                <path d="M26,14.3798598 L26,16.5398838 C26,17.3398927 25.3539731,17.9999 24.5489241,17.9999 L17.5519555,17.9999 C18.9334592,17.9999 20.0466133,16.8798876 20.0466133,15.4898721 L20.0466133,13.5698508 C20.0466133,12.6998411 19.8478358,11.8898321 19.4999752,11.159824 C19.4204641,10.9898221 19.3409531,10.8298203 19.2415644,10.6698186 C18.8539482,10.0198113 18.3271878,9.45980511 17.7209164,9.01980022 C17.6314665,8.73079701 17.591711,8.42979366 17.591711,8.10979011 C17.591711,6.23976933 19.0924812,4.73075256 20.951051,4.73075256 C22.8096208,4.73075256 24.3103911,6.23976933 24.3103911,8.10979011 C24.3103911,9.15080168 23.8432639,10.0898121 23.1077871,10.709819 C24.7675794,11.0898232 26,12.5898399 26,14.3798598" id="Fill-1" fill="#18B28D"></path>
                <mask id="mask-2" fill="white">
                    <use xlink:href="#path-1"></use>
                </mask>
                <g id="Clip-4"></g>
                <path d="M19.3112359,15.4901721 C19.3112359,16.4601829 18.5260647,17.2501917 17.5520549,17.2501917 L8.83566069,17.2501917 C8.82572181,17.2501917 8.80584406,17.2501917 8.79590518,17.2401916 C8.78596631,17.2501917 8.77602743,17.2501917 8.76608856,17.2401916 C7.83183422,17.2101912 7.08641853,16.4391827 7.08641853,15.4901721 L7.08641853,13.5101501 C7.08641853,12.8301426 7.22556279,12.1791353 7.48397356,11.5901288 C7.53366794,11.4801276 7.5933012,11.3601262 7.64299558,11.250125 C7.71256771,11.1391238 7.77220096,11.0301226 7.8417731,10.9201213 C8.59712766,9.74010822 9.84942603,8.92009911 11.3005019,8.76009733 C11.8769567,9.03010033 12.5229837,9.17910199 13.1988272,9.17910199 C13.8647319,9.17910199 14.5107588,9.03010033 15.0772748,8.76909743 C16.5084729,8.93909932 17.7408935,9.74010822 18.4962481,10.8801209 C19.0130696,11.6501294 19.3112359,12.5801398 19.3112359,13.5701508 L19.3112359,15.4901721 Z M1.45107588,17.2501917 C1.05352085,17.2501917 0.735476818,16.9291881 0.735476818,16.5401838 L0.735476818,14.6601629 C0.735476818,12.8401427 2.20643045,11.3601262 4.01530587,11.3601262 L4.084878,11.3601262 C4.39298315,11.4501272 4.71102718,11.5001278 5.04894896,11.5001278 C5.38687074,11.5001278 5.70491477,11.4501272 6.01301993,11.3601262 C6.28136958,11.2801253 6.53978035,11.160124 6.7683745,11.0191224 C6.81806888,11.0191224 6.87770213,11.0301226 6.92739651,11.0401227 C6.85782438,11.1501239 6.80813,11.2691252 6.7683745,11.3891265 C6.49008597,12.0401338 6.34100283,12.7601418 6.34100283,13.5101501 L6.34100283,15.4901721 C6.34100283,16.1701797 6.60935248,16.7901866 7.0566019,17.2501917 L1.45107588,17.2501917 Z M2.42508572,8.11009011 C2.42508572,6.660074 3.60781196,5.46906077 5.04894896,5.46906077 C6.49008597,5.46906077 7.6728122,6.660074 7.6728122,8.11009011 C7.6728122,9.28010311 6.91745764,10.2691141 5.87387566,10.6101179 C5.61546489,10.7001189 5.33717637,10.7501194 5.04894896,10.7501194 C4.76072156,10.7501194 4.48243304,10.7001189 4.22402226,10.6101179 C3.18044029,10.2691141 2.42508572,9.28010311 2.42508572,8.11009011 L2.42508572,8.11009011 Z M9.37235999,4.590051 C9.37235999,2.46902743 11.0917855,0.750008333 13.1988272,0.750008333 C15.3058689,0.750008333 17.0153556,2.46902743 17.0153556,4.590051 C17.0153556,6.08006756 16.18049,7.36008178 14.9480694,8.00008889 C14.6300253,8.17009078 14.2722258,8.29009211 13.9044874,8.36009289 C13.6758933,8.41009345 13.4373602,8.42909366 13.1988272,8.42909366 C12.9602942,8.42909366 12.7217612,8.41009345 12.493167,8.36009289 C12.1154897,8.29009211 11.7676291,8.17009078 11.4396462,8.00008889 C10.2072256,7.36008178 9.37235999,6.07006745 9.37235999,4.590051 L9.37235999,4.590051 Z M19.5000745,11.160124 C19.4205635,10.9901221 19.3410525,10.8301203 19.2416638,10.6701186 C18.8540476,10.0191113 18.3272872,9.46010511 17.7210158,9.01910021 C17.2141331,8.65009611 16.6376783,8.370093 16.0115291,8.18909099 C17.0749888,7.36008178 17.7607713,6.05006722 17.7607713,4.590051 C17.7607713,2.06002289 15.7133628,0 13.1988272,0 C10.6743527,0 8.63688317,2.06002289 8.63688317,4.590051 C8.63688317,6.05006722 9.31272673,7.34908166 10.3662476,8.17909088 C9.52144312,8.41009345 8.77602743,8.84909832 8.14987825,9.42010467 C8.31883914,9.01010011 8.40828902,8.57009522 8.40828902,8.11009011 C8.40828902,6.24006933 6.90751876,4.73005256 5.04894896,4.73005256 C3.19037917,4.73005256 1.68960891,6.24006933 1.68960891,8.11009011 C1.68960891,9.17910199 2.17661382,10.1391127 2.95184615,10.7601196 C1.25229837,11.2301248 0,12.8001422 0,14.6601629 L0,16.5401838 C0,17.3401927 0.646026934,18.0002 1.45107588,18.0002 L8.64682204,18.0002 C8.6666998,18.0002 8.67663867,18.0002 8.69651642,17.9901999 L8.72633305,17.9901999 C8.76608856,18.0002 8.79590518,18.0002 8.83566069,18.0002 L17.5520549,18.0002 C18.9335586,18.0002 20.0467127,16.8801876 20.0467127,15.4901721 L20.0467127,13.5701508 C20.0467127,12.7001411 19.8479352,11.8891321 19.5000745,11.160124 L19.5000745,11.160124 Z" id="Fill-3" fill="#000000" mask="url(#mask-2)"></path>
            </g>
        </g>
    </g>
</svg>