<?xml version="1.0" encoding="UTF-8"?>
<svg width="331px" height="158px" viewBox="0 0 331 158" version="1.1" xmlns="http://www.w3.org/2000/svg" xmlns:xlink="http://www.w3.org/1999/xlink">
    <title>audi-logo</title>
    <g id="0.0-Homepage-(release-2.0)" stroke="none" stroke-width="1" fill="none" fill-rule="evenodd">
        <g id="Homepage---Large-Desktop-example-Copy" transform="translate(-607.000000, -2399.000000)">
            <g id="audi-logo" transform="translate(607.000000, 2399.000000)">
                <rect id="Rectangle-Copy-12" x="0" y="0" width="331" height="158"></rect>
                <g transform="translate(59.000000, 45.000000)" id="Shape" stroke="#000000" stroke-width="7">
                    <path d="M33.3656567,0 C14.5377226,0.627828329 -0.3091265,16.233418 0.00489050929,35.0656511 C0.318907518,53.8978841 15.6777905,69 34.5161933,69 C53.3545962,69 68.7134792,53.8978841 69.0274962,35.0656511 C69.3415132,16.233418 54.4946641,0.627828329 35.66673,0 L33.3656567,0 Z M81.6881945,0 C62.8602604,0.627828329 48.0134113,16.233418 48.3274283,35.0656511 C48.6414453,53.8978841 64.0003283,69 82.8387311,69 C101.677134,69 117.036017,53.8978841 117.350034,35.0656511 C117.664051,16.233418 102.817202,0.627828329 83.9892677,0 L81.6881945,0 Z M130.010732,0 C111.182798,0.627828329 96.335949,16.233418 96.649966,35.0656511 C96.9639831,53.8978841 112.322866,69 131.161269,69 C149.999672,69 165.358555,53.8978841 165.672572,35.0656511 C165.986589,16.233418 151.13974,0.627828329 132.311805,0 L130.010732,0 Z M178.33327,0 C159.505336,0.627828329 144.658487,16.233418 144.972504,35.0656511 C145.286521,53.8978841 160.645404,69 179.483807,69 C198.322209,69 213.681092,53.8978841 213.995109,35.0656511 C214.309126,16.233418 199.462277,0.627828329 180.634343,0 L178.33327,0 Z"></path>
                </g>
            </g>
        </g>
    </g>
</svg>