<?xml version="1.0" encoding="UTF-8"?>
<svg width="26px" height="18px" viewBox="0 0 26 18" version="1.1" xmlns="http://www.w3.org/2000/svg" xmlns:xlink="http://www.w3.org/1999/xlink">
    <title>careers-icon</title>
    <defs>
        <polygon id="path-1" points="16.5202022 0 26 0 26 10.566613 16.5202022 10.566613"></polygon>
        <polygon id="path-3" points="0 1.03413558 21.2049343 1.03413558 21.2049343 18 0 18"></polygon>
    </defs>
    <g id="Symbols" stroke="none" stroke-width="1" fill="none" fill-rule="evenodd">
        <g id="mobile-careers-active" transform="translate(-23.000000, -18.000000)">
            <g id="careers-icon" transform="translate(23.000000, 18.000000)">
                <mask id="mask-2" fill="white">
                    <use xlink:href="#path-1"></use>
                </mask>
                <g id="Clip-2"></g>
                <path d="M26.0001003,0.593860033 L26.0001003,6.5836552 C26.0001003,6.64508899 25.9900687,6.69628382 25.9599738,6.74747865 C25.9599738,6.75771762 25.9499421,6.76795659 25.9399105,6.77819555 C25.8797207,6.88058521 25.7794043,6.95225798 25.6590246,6.95225798 C25.3079173,7.02393074 24.4050698,7.1877542 22.9705456,7.1877542 C21.9974767,7.1877542 21.2852303,7.04440867 20.6632688,6.91130211 C20.1315919,6.79867349 19.63001,6.69628382 19.0582067,6.69628382 C18.5967513,6.69628382 18.1352959,6.72700072 17.6939039,6.78843452 L17.6939039,10.566613 L17.3528282,9.97275297 L16.8612779,9.11165593 L16.5202022,8.51881979 L16.5202022,0.593860033 C16.5202022,0.440275542 16.6205186,0.307168983 16.7609615,0.255974152 C16.801088,0.245735186 17.633714,0 19.0582067,0 C19.7804846,0 20.3723513,0.122867593 20.9441546,0.245735186 C21.5460529,0.368602779 22.1680145,0.501709339 22.9705456,0.501709339 C24.0338992,0.501709339 25.5888031,0.255974152 25.6088664,0.245735186 C25.7091828,0.234472324 25.8094992,0.266213118 25.8797207,0.327646915 C25.9599738,0.399319678 26.0001003,0.490446476 26.0001003,0.593860033" id="Fill-1" fill="#18B28D" mask="url(#mask-2)"></path>
                <mask id="mask-4" fill="white">
                    <use xlink:href="#path-3"></use>
                </mask>
                <g id="Clip-5"></g>
                <path d="M10.4109345,17.2321799 C10.4109345,17.1809851 10.3908712,17.1400292 10.3708079,17.0990734 L6.90989274,11.0785613 L12.1062813,2.34472324 L16.5202022,10.0239478 L16.8612779,10.6178078 L17.272575,11.3345355 L17.4631762,11.6621824 L20.4124778,16.8021434 C20.4526044,16.8840551 20.462636,17.0683565 20.4526044,17.2321799 L10.4109345,17.2321799 Z M0.880878154,17.2321799 L5.30483062,9.79869055 L6.03714021,11.0785613 L6.25783625,11.4471641 L6.46850066,11.8260058 L9.56827687,17.2321799 L0.880878154,17.2321799 Z M21.0545027,16.4130626 L17.6939039,10.566613 L17.3528282,9.97275297 L16.8612779,9.11165593 L16.5202022,8.51881979 L12.3069141,1.18772007 C12.2467243,1.08430651 12.1765028,1.03413558 12.1062813,1.03413558 C12.0460915,1.03413558 11.9758701,1.08430651 11.9156802,1.1764572 L6.47853229,10.3311168 L5.42521028,8.49834186 C5.38508373,8.43690806 5.34495717,8.40619116 5.31486226,8.40619116 C5.2747357,8.40619116 5.23460915,8.43690806 5.20451424,8.48810289 L0.0883787329,17.0990734 C-0.072127479,17.3652865 -0.00190601127,18.0001024 0.198726754,18.0001024 L20.8639015,18.0001024 C21.1949456,18.0001024 21.3353885,16.904533 21.0545027,16.4130626 L21.0545027,16.4130626 Z" id="Fill-4" fill="#000000" mask="url(#mask-4)"></path>
            </g>
        </g>
    </g>
</svg>