<?xml version="1.0" encoding="UTF-8"?>
<svg width="331px" height="158px" viewBox="0 0 331 158" version="1.1" xmlns="http://www.w3.org/2000/svg" xmlns:xlink="http://www.w3.org/1999/xlink">
    <title>sens-logo</title>
    <defs>
        <rect id="path-1" x="0" y="0" width="331" height="158"></rect>
    </defs>
    <g id="0.0-Homepage-(release-2.0)" stroke="none" stroke-width="1" fill="none" fill-rule="evenodd">
        <g id="Homepage---Large-Desktop-example-Copy" transform="translate(-607.000000, -2187.000000)">
            <g id="sens-logo" transform="translate(607.000000, 2187.000000)">
                <mask id="mask-2" fill="white">
                    <use xlink:href="#path-1"></use>
                </mask>
                <g id="Rectangle-Copy-9"></g>
                <g mask="url(#mask-2)" fill-rule="nonzero">
                    <g transform="translate(75.000000, 7.000000)">
                        <path d="M164.126809,37.9644252 C153.355717,27.1937601 139.074891,21.2080278 123.867567,21.0893182 C124.962932,16.0715305 126.665314,10.7158759 128.956452,5.1273664 L128.997529,5.02235327 C129.440239,3.91743496 129.321574,2.66641301 128.66892,1.67107449 C128.016264,0.675734803 126.920899,0.0639214442 125.729688,0.0319607221 L125.624716,0.0319607221 C124.949241,0.00913096697 124.25551,0 123.561778,0 C117.85675,0 106.483206,0.680300287 94.3748547,5.2415105 C81.5773359,10.0538375 71.3447983,17.8202228 63.9556457,28.3260724 C60.9068787,32.6589933 56.8038223,39.7039855 54.5491958,48.6803011 C54.2342774,49.9267575 53.9513086,51.1869116 53.6957233,52.4470657 C53.2712695,52.4516312 52.8513783,52.4561967 52.4269245,52.4561967 C47.3699877,52.4561967 41.2815824,51.8991726 34.3351397,50.7942543 C28.1645814,49.8126134 17.8818392,46.3745835 15.6728524,45.5390474 C14.1302134,44.9546281 12.5236775,44.3017219 10.8851931,43.5940264 L9.01850827,42.7676212 L0,38.7634351 L5.42205745,49.3240751 C7.53063639,53.8213639 9.45208953,57.4648523 10.8715008,59.6792544 C14.5592309,65.4412628 18.8220272,70.1668409 23.7694287,73.9473032 L28.7031366,83.0879867 C31.6058549,88.4710354 34.5450853,92.7719967 37.6896964,96.2465517 C39.4377173,98.1778751 41.3774266,99.871777 42.691865,100.953867 C44.5037816,102.446876 46.5256438,103.807476 48.7118108,104.999143 L51.2813546,110.573955 C51.5506322,111.158375 54.2616621,115.943307 58.2688732,119.915533 C60.8566742,122.481498 65.4389527,125.403595 67.9126534,126.417197 L68.218442,126.545039 C70.1079479,127.34405 75.1146802,129.467136 83.0925913,129.467136 C84.5713346,129.467136 86.1185385,129.389518 87.7022546,129.229715 L87.9030704,129.211452 C89.0988448,130.731855 89.7195519,131.864168 89.8062686,132.676876 C89.8701643,133.261296 89.6510912,133.800057 89.2175088,134.772568 C88.993872,135.229144 88.4188058,135.795301 87.7524579,136.457339 L87.7250744,136.480167 C87.3280041,136.872823 86.8761656,137.32027 86.4334557,137.813374 L86.3056631,137.959478 C85.3198343,139.05983 85.1007612,140.630457 85.7488518,141.959098 C86.3513039,143.200989 87.6337939,144 89.0075644,144 C89.0851525,144 89.1581768,144 89.2403298,143.995433 L89.4274544,143.981737 C92.3164803,143.803671 98.2679656,142.17369 102.288869,137.215257 C103.297519,135.9688 104.141863,134.676685 104.85385,133.297822 C110.759695,135.315894 116.989586,136.334062 123.397474,136.334062 C138.782793,136.334062 153.24618,130.339199 164.126809,119.458955 C175.007439,108.569581 181,94.1006365 181,78.7094075 C180.995436,63.3181774 175.007439,48.8492345 164.126809,37.9644252" id="Path" fill="#FFFFFF"></path>
                        <path d="M162.671428,39.3841834 C152.142771,28.8791593 138.144236,23.0922609 123.253054,23.0922609 C122.598446,23.0922609 121.92095,23.1105305 121.243454,23.1333684 C122.516048,16.1909177 124.832353,9.50880856 126.947239,4.34307683 L126.988439,4.2380263 C127.189856,3.75388229 127.134924,3.19665869 126.84653,2.75818811 C126.558136,2.31515043 126.068325,2.04567343 125.541893,2.03197094 L125.432029,2.03197094 C124.768266,2.00913422 124.090768,2 123.417851,2 C117.833085,2 106.700176,2.66684008 94.857726,7.11092174 C82.4110229,11.7833741 72.4637318,19.3104522 65.2905122,29.4820563 C62.3333337,33.6703635 58.3507545,40.4894953 56.1626256,49.1675575 C55.7094353,50.9716815 55.3340664,52.7209967 55.0227833,54.410936 L54.8305214,54.4155031 C53.9287194,54.4566094 52.9994508,54.474879 52.0701821,54.474879 C46.8928295,54.474879 40.6809226,53.9085212 33.6038351,52.789508 C27.2637521,51.7846796 16.7488292,48.276915 14.4920349,47.4228106 C12.7113189,46.7514023 10.8527816,45.9932141 8.96220148,45.1619464 L8.10617565,44.7828518 L4,42.9650265 L6.37581447,47.8612812 C8.41288028,52.3144982 10.6284758,56.2972726 12.0979097,58.5855406 C17.6323204,67.2087952 24.4988366,73.4158946 33.077402,77.5585271 C38.1448904,80.0020874 44.0226272,81.0799942 47.0713592,81.5047623 C49.3556202,81.824481 53.2466459,82.1213618 55.0822939,82.1213618 L55.4347747,82.1167947 C55.5949937,82.7333942 55.7689448,83.3636951 55.9566305,83.9985642 C55.8467662,83.9985642 55.736902,83.9985642 55.6316151,83.9985642 C52.1342702,83.9985642 48.9848286,83.7473568 45.1029588,83.1627294 C41.8894293,82.6785854 38.8864734,81.9980428 35.9201389,81.0891296 C34.642968,80.6963324 33.3108638,80.2669973 32.2213762,79.7874192 L27.7260983,77.823437 L30.0561354,82.1304972 C32.8897176,87.3693074 35.7461878,91.543912 38.7903425,94.8963855 C40.4611941,96.7370476 42.3243088,98.3630426 43.592325,99.4044102 C45.3455754,100.847709 47.3185543,102.163121 49.4517511,103.314106 C55.2013129,106.419939 60.6167047,107.80843 67.0117187,107.80843 C67.0941174,107.80843 67.1719376,107.803862 67.2589138,107.803862 L68.3346681,107.794728 C68.8153238,108.406759 69.3051344,109.018791 69.7995246,109.617121 C69.2090035,109.658228 68.6505275,109.671929 68.0508516,109.671929 C67.2177138,109.671929 66.2655571,109.639957 65.061629,109.566879 C61.8206339,109.379616 56.4876398,108.210361 55.0227833,107.511549 L50.7975886,105.497325 L52.7614116,109.740441 C52.9994508,110.256557 55.6041485,114.787419 59.3578433,118.49615 C61.7153471,120.825525 66.0778726,123.629909 68.389599,124.575362 L68.7054596,124.703249 C70.4907529,125.461437 75.2423819,127.466527 82.8321691,127.466527 C84.2466709,127.466527 85.7298393,127.388881 87.2542054,127.238157 L88.4672894,127.119404 C88.7465274,127.388881 88.9891451,127.65379 89.1951403,127.909565 C92.422402,131.983688 91.790682,133.449824 90.8156372,135.646744 C90.4402683,136.42777 89.7398829,137.117447 88.925057,137.916742 L88.9021689,137.944147 C88.5039108,138.332376 88.0919193,138.738875 87.6936623,139.18648 L87.5654874,139.32807 C87.1306078,139.812214 87.0298983,140.511026 87.3182922,141.100221 C87.5883755,141.652877 88.15143,142 88.7648381,142 C88.7968821,142 88.8289261,142 88.8655475,142 L89.0578094,141.986298 C91.6213083,141.826438 96.9176799,140.378572 100.506578,135.961894 C101.96228,134.171473 102.919014,132.426726 103.59651,130.791595 C109.812996,133.143808 116.423161,134.335899 123.253054,134.335899 C138.144236,134.335899 152.142771,128.549002 162.671428,118.043977 C173.200083,107.538954 179,93.5672713 179,78.7140806 C179,63.8563217 173.200083,49.8892076 162.671428,39.3841834" id="Path" fill="#000000"></path>
                        <path d="M177,79 C177,93.4234389 171.389879,106.983936 161.200437,117.183986 C151.015558,127.384037 137.469165,133 123.060731,133 C116.424367,133 110.020619,131.835716 104,129.543672 C104.259981,128.772048 104.469791,128.027818 104.647673,127.324682 C104.944143,126.164962 105.112902,124.900229 105.245173,123.571574 C105.801625,123.407204 106.558763,123.128689 108.059356,122.452947 C109.838176,121.649362 111.005811,121.096898 111.192814,121.005581 C115.037801,122.092247 119.028741,122.640146 123.060731,122.640146 C134.705155,122.640146 145.651734,118.101717 153.889034,109.860405 C162.121775,101.619092 166.655483,90.6565489 166.655483,79 C166.655483,66.6540125 161.401125,54.83766 152.233365,46.5689525 C152.224242,46.4228461 152.215121,45.7653675 152.497907,44.8339394 C152.566323,44.6147798 152.63474,44.377357 152.698594,44.1399342 C152.767011,43.9025113 152.830865,43.6742207 152.894721,43.4687577 C156.187816,46.7652832 158.103468,46.1534622 158.171884,46.1215023 C158.295033,46.0484492 158.436427,46.0119226 158.582381,46.0119226 C159.25742,46.0119226 159.955264,46.7698488 160.032802,46.8565997 L160.041925,46.8702963 L160.055607,46.8565997 L160.041925,46.8657308 L160.155951,46.7515855 C160.060169,46.6420057 159.280225,45.7060121 159.645111,44.9754802 C159.677039,44.8932948 160.456982,42.9299911 156.972322,39.2316731 L156.890222,39.1403566 L156.84005,39.2590686 C156.826368,39.2910297 156.529897,40.0672192 156.821806,41.4506641 L156.835489,41.5419806 C156.835489,41.5465461 156.931271,42.3318679 156.49797,42.8249768 C156.260793,43.0943608 155.909591,43.2267694 155.453483,43.2267694 L155.079476,43.199375 C154.495658,43.016742 153.934646,42.9208589 153.414683,42.9208589 L153.077164,42.9345566 C153.141019,42.7747525 153.209434,42.6149495 153.291534,42.4414476 C153.44205,42.1172738 153.583443,41.7931 153.65186,41.4780585 L153.870791,41.4460986 C154.50478,41.4460986 155.207186,42.0213918 155.289285,42.0898795 L155.302968,42.1035772 L155.31209,42.0898795 L155.298407,42.0990105 L155.348578,42.0350896 L155.39419,41.9666019 C155.289285,41.8752855 154.381632,41.0534371 154.646173,40.2772476 C154.668978,40.1904967 155.166135,38.1404408 151.207124,34.9580618 L151.106779,34.8804431 L151.079412,35.0037206 C151.070291,35.0356805 150.883287,35.8483978 151.36676,37.1770529 L151.389567,37.2638026 C151.389567,37.2729349 151.603936,38.0947832 151.184317,38.6426821 C150.928897,38.9805525 150.486473,39.1494888 149.879851,39.1540544 C149.524086,39.0901322 149.172884,39.0581723 148.844486,39.0581723 C147.914027,39.0581723 147.425992,39.3001607 147.407747,39.3138585 L147.293721,39.3686484 L147.394064,39.4462671 C148.210497,40.0946147 148.926585,40.5603281 149.574258,40.9073308 L149.364448,40.9849495 C149.177444,41.0534371 148.98588,41.1310559 148.780631,41.204109 C148.278913,41.3821765 147.781756,41.592205 147.453359,41.7383113 C147.024617,41.9255098 146.646049,42.1401038 146.5229,42.213157 C139.52165,37.7295173 131.407497,35.3598543 123.060731,35.3598543 C122.098344,35.3598543 121.131397,35.3918154 120.164449,35.4557375 C119.986566,32.0450667 120.241987,28.5293816 120.780194,25.0502244 C121.537332,25.0182633 122.303592,25 123.060731,25 C137.469165,25 151.010997,30.6159629 161.200437,40.8160143 C171.389879,51.0160657 177,64.5765623 177,79" id="Path" fill="#969696"></path>
                        <path d="M110.954737,94.6113707 C113.493916,97.2890968 115.735716,99.6587246 116.600409,101.539023 C116.64616,101.638702 116.687336,101.73838 116.723937,101.833527 C116.765113,101.946799 116.806288,102.06007 116.838314,102.16881 C116.86119,102.250366 116.884066,102.336451 116.902365,102.418006 C116.975567,102.735165 117.030469,103.038731 117.071645,103.333235 C117.117395,103.623209 117.144846,103.908652 117.167722,104.175972 C117.181447,104.447822 117.190597,104.70608 117.190597,104.959807 C117.190597,105.218064 117.181447,105.467261 117.163147,105.707395 C117.149421,105.902221 117.126546,106.083455 117.108246,106.260158 C117.099095,106.314528 117.089945,106.368898 117.085369,106.423268 C116.998443,107.016807 116.884066,107.542386 116.774264,108 C117.625232,107.311312 118.810183,106.264688 119.738928,105.426483 C119.82128,105.349458 119.903631,105.276965 119.985983,105.204472 C120.301665,104.914498 120.580747,104.660771 120.786626,104.475007 C120.896428,104.370797 121.010805,104.266589 121.129759,104.162379 C121.248711,104.05817 121.363088,103.953961 121.486616,103.845221 C121.729096,103.632271 121.980727,103.419322 122.241507,103.197311 C123.202279,102.363636 124.1905,101.516369 124.954541,100.696288 C125.407476,100.206957 125.78721,99.7312181 126.02969,99.2781353 L126.102891,99.1422096 C126.377397,98.6392862 126.564976,98.2949424 126.551252,97.6968717 C126.551252,97.5564154 126.537526,97.406898 126.510076,97.2347267 C126.464324,96.9175674 126.386548,96.6366559 126.27217,96.3648056 C126.080016,95.9117217 125.791784,95.4858223 125.398326,94.9738378 C124.981992,94.4346676 124.570234,93.9272137 124.1722,93.4469453 C123.865668,93.0890088 123.568287,92.7401345 123.27548,92.4093824 C123.092476,92.2009643 122.909472,91.9970769 122.726468,91.7931883 C122.520589,91.5666469 122.310134,91.3401055 122.108829,91.1226253 C121.980727,90.982169 121.857199,90.8507738 121.729096,90.7193797 C121.628444,90.6106396 121.527791,90.5064312 121.431715,90.397691 C121.312763,90.2753581 121.193809,90.1484946 121.074856,90.0261617 C121.056557,90.0035077 121.033681,89.9808527 121.01538,89.9581988 C120.937604,89.8766443 120.859827,89.7996191 120.78205,89.7135341 C120.699699,89.6274478 120.617347,89.5413616 120.534995,89.4552765 C118.887959,87.7244955 117.735034,86.4467995 117.245498,85.0377083 C117.153996,84.7930424 117.089945,84.5529082 117.053344,84.3082435 C117.039619,84.258404 117.035044,84.2040339 117.030469,84.1541944 C117.025893,84.136071 117.025893,84.1224782 117.025893,84.1043549 C116.975567,83.7418878 116.961842,83.365829 116.998443,82.9580529 C117.520004,79.3696285 122.053928,76.9682833 125.256498,80.9554215 L126.5055,82.5004385 C126.5055,82.5004385 132.402805,89.867582 135.555048,93.6508328 L137.179208,95.5447241 C137.238685,95.6081552 137.28901,95.6625253 137.330187,95.7033025 C139.988319,98.7978658 144.837925,101.244519 146,101.774627 C145.913074,101.674949 145.816996,101.561678 145.71177,101.434814 C145.135306,100.732534 144.279762,99.6179474 143.579772,98.3900897 C143.387619,98.0502777 143.20919,97.7059339 143.049061,97.3570596 C143.017036,97.2890968 142.989585,97.2211339 142.957559,97.153171 C142.847757,96.9175674 142.742529,96.6729027 142.632727,96.4237062 C142.564101,96.2651266 142.495474,96.1020164 142.426847,95.9343756 C142.088291,95.1052318 141.768033,94.1900029 141.511827,93.129786 C141.4249,92.7582578 141.347124,92.3957907 141.283073,92.0423847 C141.251047,91.85209 141.219021,91.6663259 141.191571,91.4850924 C141.186996,91.4533762 141.18242,91.42166 141.177845,91.3899439 C141.150395,91.1996492 141.127519,91.0138851 141.104644,90.8281199 C141.090918,90.7012564 141.077194,90.5789246 141.068043,90.4520599 C141.049743,90.2617653 141.031442,90.0805317 141.022291,89.8947676 C141.022291,89.8857054 141.022291,89.8721125 141.022291,89.8585209 C141.008567,89.6727568 140.999416,89.4915232 140.994841,89.3102897 C140.981116,89.0293771 140.976541,88.7575267 140.981116,88.4992692 C140.981116,88.23648 140.985691,87.9918153 140.999416,87.7607422 C141.022291,87.1717337 141.072618,86.6778714 141.122944,86.3108737 C141.122944,86.2927504 141.127519,86.2791576 141.127519,86.2655659 C141.16412,85.9982461 141.200721,85.7988892 141.223597,85.6765563 C141.081769,85.6448401 140.839287,85.5859395 140.537331,85.4726688 C139.933418,85.2551885 139.082449,84.8428819 138.309258,84.1134171 C137.920374,83.7464183 137.554366,83.3023967 137.252409,82.7632265 C136.474643,81.3949138 135.742627,79.7502189 135.596224,76.9909383 C135.417794,77.1178018 135.243941,77.2537264 135.065512,77.3851216 C134.25572,77.9922534 133.418476,78.6220403 132.379928,79.1068392 C131.817192,79.374159 130.774068,79.7864657 129.538791,79.926922 C129.264286,79.9586381 128.980629,79.9767603 128.692398,79.9767603 C128.449918,79.9767603 128.212012,79.9631687 127.978683,79.9359831 C127.745352,79.9133291 127.521173,79.8725519 127.301568,79.8227124 C124.350629,79.1430859 122.534313,77.788366 121.573543,75.5591932 C121.353938,75.0472075 121.198384,74.5170997 121.116033,73.9779307 C121.093158,73.8465355 121.079432,73.7106109 121.065707,73.5746852 C121.051981,73.4387606 121.047406,73.3028348 121.042831,73.1623786 C121.033681,72.8859977 121.042831,72.6141473 121.070281,72.3332359 C121.129759,71.7261029 121.234985,71.064601 121.422565,70.4076285 C121.463741,70.2626416 121.509491,70.1131242 121.555243,69.9681374 C121.605569,69.8231505 121.660469,69.6781637 121.715371,69.5331769 C121.889225,69.1072786 122.104255,68.6859108 122.365035,68.2917276 C122.451962,68.1648641 122.543464,68.03347 122.644116,67.9111371 C122.886597,67.5985095 123.170253,67.3130664 123.490509,67.0548088 C123.682664,66.9007597 123.893118,66.7557729 124.117299,66.6289094 C124.1905,66.5836016 124.268277,66.5428232 124.346053,66.5020459 C124.501607,66.4204902 124.66631,66.3479968 124.835589,66.2800351 C124.954541,66.2301956 125.078069,66.1894183 125.201597,66.1531716 C125.57218,66.048962 125.970214,65.9945919 126.381972,65.9945919 C127.873455,65.9945919 129.291737,66.7014028 129.945975,67.7434963 C129.96885,67.680064 129.991727,67.6121011 130.014602,67.5441383 C130.188455,67.0366843 130.403485,66.2800351 130.650541,65.3874601 C131.227003,63.3531125 132.009345,60.5621158 133.084494,57.9161058 C133.244623,57.5264543 133.404751,57.1277404 133.564879,56.7244961 C133.683832,56.4209296 133.807359,56.108302 133.930887,55.8002037 C134.804732,53.6389939 135.756352,51.4732534 137.179208,49.7470029 C135.19819,48.3424434 133.3407,47.4634601 131.711964,46.9152289 C131.579285,46.8699211 131.442033,46.8246121 131.309355,46.7838348 C128.797625,46 126.894383,46 126.02969,46 L125.718583,46 C122.470263,46.0453078 119.638276,46.4893306 116.948117,47.4045595 C116.765113,47.4634601 116.586684,47.5268924 116.408256,47.5903248 C115.621337,47.8802984 114.843571,48.2110494 114.065805,48.5825776 C113.818749,48.70038 113.571693,48.8227129 113.324638,48.9495753 C113.205685,49.0130076 113.086733,49.0719082 112.967781,49.1308088 C110.808333,50.2861731 108.818165,51.7722882 107.061326,53.5166609 C107.05675,53.5211926 107.052176,53.5302537 107.047601,53.5302537 C104.654823,55.9089439 102.696681,58.7588424 101.328727,61.8760596 C100.779715,63.1265712 100.32678,64.41786 99.9790719,65.7363344 C99.6084892,67.1544867 99.2653564,68.6677863 99.1006528,70.3170129 C99.0366008,70.9785148 99,71.6626717 99,72.3740132 C99.0045748,73.257527 99.0686268,74.1818182 99.2104552,75.1604794 C99.2653564,75.5456004 99.333982,75.9443142 99.4209092,76.3475586 C99.5352876,76.9093826 99.6816907,77.4847995 99.8509691,78.0783397 C99.8875699,78.1916104 99.9195948,78.304881 99.9561956,78.4181517 C100.468607,80.0719088 101.209773,81.8525282 102.262046,83.7736039 C102.742432,84.6525861 103.291444,85.5179766 103.886207,86.3697743 C105.940427,89.3193508 108.566534,92.0967548 110.954737,94.6113707" id="Path" fill="#969696"></path>
                        <path d="M155.536499,90.5372802 L154.950191,93.0850292 L156.577312,100.024658 C156.577312,100.024658 151.81412,100.778865 149.696134,101.100783 C149.04165,103.312818 145.778318,112 145.778318,112 L145.123833,111.673484 C144.65115,106.927496 142.210469,104.499316 139.419819,102.682779 C137.856328,101.666439 136.065586,100.967417 134.361199,100.420157 C132.056868,99.6797462 129.666182,99.2290606 127.24368,98.8703528 C127.661822,97.8770064 127.548197,96.6813117 127.24368,95.9317027 C126.748271,94.6992174 125.998342,93.8622305 125.325677,92.9884541 C128.302672,92.4779841 128.643549,90.3487286 128.525379,89.0472606 C128.148141,89.7094915 126.55738,92.436595 124.207599,91.8985327 C119.380776,86.1408026 118.558124,85.8280824 118.089987,83.9701567 C117.753654,82.6456949 118.371778,80.9395301 119.748923,79.9967711 C122.271416,78.414775 123.843996,80.019765 126.39376,83.2665355 C127.748178,84.986497 132.643177,91.558219 135.861059,95.255675 C138.324467,98.0839533 140.787873,99.9004898 143.837589,101.519277 C145.514706,102.411448 147.450889,103.078279 147.450889,103.078279 L147.855397,102.429843 C147.855397,102.429843 145.46471,100.024658 143.94667,96.9664383 C143.19674,95.4626231 142.633156,93.8714287 142.274098,92.3170249 C141.387817,88.435617 142.242283,84.4346379 142.242283,84.4346379 C142.242283,84.4346379 139.978858,84.811741 137.874508,81.6707438 C137.32456,80.8475536 136.806425,78.9298435 136.642804,77.7111537 C136.524634,76.8373774 136.447368,76.1613497 136.433734,75.4347358 C140.301554,71.8660468 145.569246,65.4736782 147.58724,65 C148.191729,66.278473 157,85.1750485 157,85.1750485 L155.027456,86.1362029 L155.036546,88.3114484 L149.877936,92.1330719 L155.536499,90.5372802 Z" id="Path" fill="#FFFFFF"></path>
                        <path d="M95.5537537,134 C95.5764854,133.826199 95.5901249,133.702709 95.5901249,133.666119 C95.8492699,131.150575 95.1309368,129.403416 94.4398828,127.967269 C93.7852,126.608876 92.9259292,125.570642 92.1030296,124.623883 C90.6299933,122.922462 88.6977701,121.440577 87.6793747,120.708782 C87.5066106,120.585293 70.0984139,107.916101 62.5922937,89.5480597 C56.8319943,75.4610162 57.5321417,62.9015943 59.1324774,54.8472806 C59.6598607,52.1853788 60.3145435,49.6927042 61.192,46.9987861 L61.219279,46.9073106 C64.351754,37.2704931 69.0527395,30.6386052 72.4489067,26.7692425 C83.4466684,14.2281143 101.104918,6.6860579 121,6 C119.558789,9.61323576 118.231238,14.0543137 117.049172,19.2226115 C116.830944,20.1876658 114.939638,28.7084979 115.417011,35.6468239 C109.302092,37.4717366 103.819123,40.4629459 99.1135916,44.5381266 C95.8356304,47.3784036 92.9304764,51.0693922 90.934603,54.9341814 C88.3977066,59.8509258 87.9066945,63.8392056 87.5520753,66.7572367 C87.5066106,67.1094124 87.4656932,67.4478668 87.4247758,67.7680275 C86.8655673,71.9575508 88.2294898,82.5914388 94.0307066,89.365111 C95.6219501,91.2220401 97.8315039,93.9799908 100.627545,97.4651613 L100.663916,97.5108979 C102.523397,99.8297719 104.619291,102.445937 106.978877,105.35482 C106.128699,106.214679 104.24194,108.236261 102.5825,112.197098 C101.750507,114.177518 101.227671,116.08933 101.018536,117.882227 C100.936701,118.586578 100.877597,119.327521 100.818494,120.109627 C100.650277,122.240977 100.463875,124.642179 99.7182636,127.020511 C99.2227054,128.612163 98.6498574,129.901951 97.9178859,131.086544 C97.2450175,132.184235 96.399385,133.217894 95.5537537,134" id="Path" fill="#575757"></path>
                        <path d="M125,4.02744516 L124.885777,4.02744516 C124.24613,4.009148 123.58364,4 122.921149,4 C117.456742,4 106.564479,4.64954867 94.9823115,9.01342239 C82.8655827,13.5785637 73.1886471,20.9203009 66.2165028,30.8373627 C63.3472322,34.9222038 59.4773717,41.5686476 57.3528325,50.0219365 C53.8484841,64.0009682 55.0226917,74.599599 56.0369886,79.6724869 C57.0193029,84.6035727 59.1941004,90.7193988 61.7115646,95.6413354 C62.2187131,96.6293821 64.8001437,101.180801 66.5134812,103.669215 C68.2588025,106.203372 70.1731728,108.668915 72.2109026,110.997228 C74.9339684,114.116895 76.6610128,115.759066 78.0499591,117.076461 C78.525125,117.529316 78.9363268,117.918131 79.3292518,118.311519 C81.3075873,120.30591 83.4778162,121.970952 85.3921854,123.443874 C87.3476755,124.948815 89.0336014,126.247913 90.0204842,127.496694 C93.8583621,132.350018 92.9217363,134.463339 91.8389068,136.910585 C91.3454653,137.958097 90.5093559,138.786043 89.6229895,139.659733 C89.2346319,140.043974 88.8325685,140.437363 88.4579191,140.853623 L88.3345584,141 L88.5264529,140.986278 C90.8200413,140.844475 95.5716996,139.536227 98.8064824,135.542872 C101.200587,132.583305 102.14635,129.738097 102.758583,127.345743 C103.137802,125.854524 103.297714,124.102571 103.462194,122.254558 C103.558141,121.165876 103.663226,120.045175 103.813999,118.938197 C104.056152,117.158798 104.599851,115.278764 105.298893,113.778397 C106.431981,111.34945 107.647309,109.515159 109.004272,108.184041 C108.588503,107.758632 108.18187,107.314925 107.779806,106.871219 C106.326896,108.389883 104.60442,110.98808 103.763742,112.968748 C102.251435,116.518397 102.068679,118.581403 101.936181,120.086344 C101.904199,120.493457 101.872216,120.841101 101.821958,121.175026 C101.762562,121.536394 101.73058,122.002972 101.694029,122.538164 C101.543255,124.619466 101.287397,128.105076 99.2542354,131.796528 C97.8241681,134.390151 95.9052304,136.334224 93.3923335,137.733957 C94,136.860267 94.6624889,135.090017 94.4660259,132.898932 C94.0868067,128.68601 90.824611,125.419967 88.1518023,123.421002 C80.0237249,117.346345 73.2480437,110.402571 68.0120811,102.772655 C62.8720664,95.2845413 59.4590961,87.5036723 57.8691181,79.6541909 C55.9364722,70.0939232 56.2608645,60.0853756 58.8194498,50.7126546 C61.286657,41.6464103 65.7824568,33.3074784 71.8134078,26.5969951 C83.6925537,13.3727209 101.255414,6.17278828 122.610464,5.76567555 L122.363743,6.46554287 C121.216948,9.71786254 120.029034,13.0845404 119.04672,16.7942902 C118.288282,19.6715187 117.666911,22.5716194 117.155194,25.6729878 C116.54753,29.3324202 116.332792,33.1245068 116.584081,36.2030051 L118.247162,35.8233387 C117.621223,24.6529219 121.559616,12.4532889 124.958879,4.13265413 L125,4.02744516 Z" id="Path" fill="#969696"></path>
                        <polygon id="Path" fill="#969696" points="144.50586 122.507812 144.486328 122.46875 144.513672 122.53125"></polygon>
                        <polygon id="Path" fill="#000000" points="154.136147 84 150 86.7249138 150.100068 87 157 85.1885812"></polygon>
                        <path d="M148.948923,75.9631396 C148.948923,75.9631396 148.888616,74.9072531 148.638769,74.4934597 C148.388924,74.0796674 149.758769,73.4328184 149.758769,73.4328184 L149.052308,73 L148.88,73.3424495 L145.670769,74.5838286 L143,77 L145.291692,76.1866834 L150,76.8525562 L148.948923,75.9631396 Z" id="Path" fill="#000000"></path>
                        <path d="M136.090517,32.113082 C136.249999,31.798227 136.590517,31.6385806 137.090517,31.6385806 C137.5,31.6385806 137.87931,31.7494462 137.952586,31.7716189 L137.969827,31.7760532 L137.987069,31.7006654 L138,31.6208434 C137.874999,31.5809312 136.775862,31.2084256 136.702585,30.4146349 C136.689655,30.3259419 136.340518,28.3126386 131.706897,27.0354767 L131.590517,27 L131.612068,27.1241685 C131.61638,27.1552109 131.762931,27.9534371 132.693965,28.9512196 L132.741379,29.0133033 C132.745689,29.0177387 133.245689,29.6651883 133.090517,30.3170733 C132.99569,30.7161859 132.676724,31.0443461 132.155172,31.2838134 C130.676724,31.6651887 130.099138,32.361419 130.077586,32.3924615 L130,32.4900219 L130.116378,32.5210643 C131.293103,32.8359205 132.357758,33 133.275862,33 C135.392241,32.9955657 136.056034,32.1618628 136.090517,32.113082" id="Path" fill="#000000"></path>
                        <path d="M142.687399,34.1398149 C143.247185,34.1398149 143.816621,34.3569905 143.927614,34.4038325 L143.942091,34.4080905 L143.980697,34.3399571 L144,34.2675656 C143.869705,34.2122075 142.706702,33.7054648 142.745308,32.9432218 C142.745308,32.858055 142.658444,30.8907027 137.712064,29.046842 L137.591421,29 L137.596246,29.1192335 C137.596246,29.1533002 137.639677,29.9283175 138.513137,31.001419 L138.561394,31.0695524 C138.566219,31.0738105 139.024664,31.759404 138.754423,32.3598295 C138.590349,32.7260473 138.184987,32.9943219 137.572118,33.1476221 C135.873458,33.3094395 135.130294,33.8970898 135.10134,33.9226404 L135,34.003548 L135.125469,34.046132 C136.848258,34.6806243 138.358713,35 139.61823,35 C141.176944,35 141.775335,34.5102907 141.809115,34.476224 C141.992493,34.2547903 142.286863,34.1398149 142.687399,34.1398149" id="Path" fill="#000000"></path>
                        <path d="M149.068553,36.0804907 C149.077259,35.9897686 149.281828,33.7933158 145.120783,31.0716238 L145.016322,31 L145.003265,31.1336983 C145.003265,31.1718975 144.929271,32.0361536 145.560393,33.3444749 L145.595213,33.4304236 C145.599565,33.4399728 145.912949,34.2612551 145.586507,34.8915416 C145.38629,35.2783079 144.990207,35.5170534 144.41567,35.6030022 L144.211099,35.6030022 C142.809576,35.6030022 142.130576,36.1043661 142.100109,36.1282403 L142,36.199864 L142.104461,36.2714866 C144.311208,37.6991812 145.808488,38 146.674647,38 C147.579979,38 147.989119,37.6848562 148.015234,37.660982 C148.171927,37.4795365 148.38085,37.3888132 148.642002,37.3888132 C149.212187,37.3888132 149.843309,37.8185545 149.917302,37.8663029 L149.930359,37.8758521 L149.969533,37.8042295 L150,37.7278312 C149.891186,37.646657 148.924919,36.9256484 149.068553,36.0804907" id="Path" fill="#000000"></path>
                        <path d="M162.146263,51.011844 L162.448454,50.9486748 C163.156572,50.9486748 163.801546,51.8781723 163.8692,51.9864633 L163.878221,52 L163.945876,51.9503663 L164,51.896222 C163.927835,51.7834179 163.282861,50.7546531 163.742913,50.0868584 C163.788015,50.0101525 164.816366,48.1962771 161.911727,44.0992674 L161.839562,44 L161.776417,44.108291 C161.762887,44.1353644 161.361469,44.8618165 161.460696,46.2605751 L161.460696,46.3417939 C161.460696,46.4004513 161.429123,47.8217714 160.152705,47.8217714 C159.958763,47.8217714 159.737758,47.7901863 159.516752,47.7270159 C158.538015,47.2577548 157.789304,47.1900737 157.43299,47.1900737 C157.234536,47.1900737 157.126289,47.2081222 157.121777,47.2081222 L157,47.2306826 L157.072165,47.3344618 C159.462628,50.6689235 161.266752,51.0298937 161.929768,51.0298937 L162.146263,51.011844 Z" id="Path" fill="#000000"></path>
                        <path d="M165.790905,56.8118807 L166.003518,56.7854775 C166.792553,56.7854775 167.373699,57.8635861 167.439845,57.9867984 L167.44457,58 L167.520167,57.9647965 L167.591037,57.9163914 C167.529615,57.7975792 167.009891,56.7194718 167.581588,56.1342136 C167.64301,56.0682067 168.970666,54.453245 166.55159,50.1056106 L166.490169,50 L166.409848,50.0968091 C166.386225,50.1232123 165.871225,50.765676 165.772006,52.1210125 L165.757831,52.2090202 C165.748382,52.2618266 165.535767,53.4807481 164.411275,53.4807481 C164.146689,53.4807481 163.849029,53.4147412 163.54192,53.2871288 C162.270961,52.5038499 161.335458,52.4642463 161.160642,52.4642463 L161,52.4686464 L161.056698,52.5786582 C163.381278,56.6974698 165.507419,56.8162809 165.743658,56.8162809 L165.790905,56.8118807 Z" id="Path" fill="#000000"></path>
                        <path d="M168.683598,62.6214439 L168.776961,62.6170678 C169.540841,62.6170678 169.948244,63.8424508 169.994926,63.9868706 L169.999169,64 L170.071313,63.9781184 L170.139214,63.9387314 C170.10102,63.8118159 169.782736,62.6827136 170.368378,62.1838083 C170.432035,62.1225386 171.828238,60.7045955 170.253796,56.1137861 L170.215602,56 L170.130727,56.0831513 C170.105263,56.1050328 169.56206,56.6739612 169.290458,58.0043769 L169.26924,58.083151 C169.264996,58.0962804 168.946713,59.1728674 168.06825,59.1728674 C167.788162,59.1728674 167.478366,59.0678345 167.151594,58.862145 C166.026994,57.8336983 165.152775,57.746171 165.118825,57.7417949 L165,57.7330416 L165.042437,57.8468277 C166.633854,62.4288849 168.590235,62.6126917 168.683598,62.6214439" id="Path" fill="#000000"></path>
                        <path d="M169.075495,65.4301552 C168.055562,64.2416851 167.155885,64.0243905 167.120254,64.0155208 L167,63.9889138 L167.022269,64.108648 C168.042202,68.937916 170.041981,69.407982 170.14442,69.4257203 C171.01292,69.4434587 171.280152,70.8226164 171.311328,70.9866959 L171.315783,71 L171.391498,70.9866959 L171.467213,70.960089 C171.444944,70.8270507 171.271244,69.6474504 171.952683,69.2261641 C172.023944,69.1773833 173.676323,67.9534365 172.683114,63.1197342 L172.660845,63 L172.558406,63.0709534 C172.531684,63.0931261 171.881421,63.5809315 171.41822,64.8758318 L171.38259,64.9512195 C171.378136,64.9645236 170.946113,65.8869182 170.135511,65.8869182 C169.805927,65.8913525 169.44071,65.7317073 169.075495,65.4301552" id="Path" fill="#000000"></path>
                        <path d="M129.997118,30.1362769 C130.175646,27.8811661 122,29.6790547 122,29.6790547 C122,29.6790547 129.823169,32.317767 129.997118,30.1362769" id="Path" fill="#000000"></path>
                        <path d="M124.981642,127.046512 L124.995411,127.125582 L124.995411,127.116279 L125,127.125582 L124.995411,126.962791 L124.921974,126.962791 C124.660356,126.962791 123.338497,126.920931 123.150316,126.074418 C123.118187,125.990698 122.232359,124.037209 117.123925,124 L117,124 L117.050488,124.116279 C117.064256,124.148837 117.468158,125.023256 118.872634,125.818605 C119.359151,126.213954 119.59782,126.632558 119.588641,127.065116 C119.570281,127.767442 118.881813,128.283721 118.872634,128.288372 L118.831325,128.32093 C117.587493,129.074418 117.22031,129.846512 117.201951,129.883721 L117.146873,130 L117.325874,130 C122.393,130 123.288009,128.065116 123.329318,127.981396 C123.613885,127.2 124.843948,127.130233 124.981642,127.125582 L124.981642,127.046512 Z" id="Path" fill="#000000"></path>
                        <path d="M131.986813,127.120611 L131.973626,127.042748 L131.995605,127.116031 L131.995605,127.10687 L132,127.116031 L131.973626,126.955725 L131.956045,126.960305 L131.96923,127.010687 L131.96923,127.033588 L131.956045,126.955725 C131.898901,126.969466 131.687912,126.996946 131.428572,126.996946 C130.931868,126.996946 130.307693,126.887023 130.10989,126.341985 C130.079121,126.287022 129.296703,125 126.118682,125 C125.503296,125 124.830769,125.050382 124.123077,125.146565 L124,125.164885 L124.065934,125.270229 C124.087912,125.30687 124.584615,126.099237 126.017583,126.680916 C126.531868,127.001527 126.813187,127.377099 126.857143,127.798473 C126.931868,128.490077 126.347252,129.085496 126.342857,129.090077 L126.276923,129.154198 C125.217582,130.047328 124.975824,130.844274 124.967033,130.876336 L124.927473,131 L125.05055,130.981679 C129.898901,130.290076 130.501099,128.270229 130.523077,128.178626 C130.694506,127.377099 131.846154,127.143511 131.982418,127.120611 L131.986813,127.120611 Z" id="Path" fill="#000000"></path>
                        <path d="M137.957013,125.158437 L137.939818,125.162858 C137.86244,125.184966 137.471253,125.304347 137.054272,125.304347 C136.568512,125.304347 136.241806,125.149594 136.074154,124.831244 C136.048362,124.800295 135.394949,124 133.370231,124 C132.424503,124 131.332616,124.176861 130.116067,124.521739 L130,124.552689 L130.077378,124.645541 C130.10317,124.676492 130.687802,125.366249 132.153681,125.71997 C132.691027,125.958732 133.013433,126.277081 133.112305,126.675018 C133.275659,127.324982 132.785599,127.974944 132.777001,127.983788 L132.734014,128.045688 C131.818378,129.049373 131.680817,129.845247 131.676518,129.880619 L131.655024,130 L131.771091,129.969049 C136.375068,128.633751 136.701774,126.617539 136.710371,126.529107 C136.770554,125.737656 137.86244,125.352984 137.987105,125.313191 L137.96561,125.238025 L138,125.308769 L137.995702,125.299926 L138,125.308769 L137.957013,125.158437 Z" id="Path" fill="#000000"></path>
                        <path d="M144.927691,122.538515 L144.913229,122.542756 L144.942153,122.585159 L144.946973,122.60636 L144.913229,122.542756 C144.797536,122.5894 144.214247,122.818374 143.650241,122.818374 C143.264596,122.818374 142.975362,122.708126 142.787359,122.483392 C142.763257,122.462191 142.175147,122 140.680771,122 C139.408142,122 137.875202,122.334982 136.125335,123.000707 L136,123.047349 L136.101233,123.123675 C136.130156,123.149116 136.882164,123.725794 138.564542,123.865725 C139.196037,124.014135 139.605785,124.277032 139.774505,124.641696 C140.049277,125.235336 139.605785,125.922262 139.600964,125.926502 L139.572042,125.973145 C138.694698,127.062898 138.660953,127.847351 138.660953,127.881273 L138.656133,128 L138.781467,127.949118 C143.693626,126.057951 143.751473,124.094699 143.751473,124.009894 C143.698447,123.255124 144.850562,122.737809 144.985538,122.682685 L144.951794,122.614841 L145,122.678445 L144.99518,122.669964 L145,122.678445 L144.927691,122.538515 Z" id="Path" fill="#000000"></path>
                        <path d="M149.912901,119.07619 L149.899838,119.085714 L149.930321,119.128572 L149.939032,119.152381 L149.899838,119.085714 C149.830159,119.133333 149.189984,119.580952 148.615134,119.580952 C148.362548,119.580952 148.153511,119.490476 147.988024,119.309523 C147.974959,119.295239 147.578661,119 146.707675,119 C145.83669,119 144.329886,119.309523 142.104518,120.790476 L142,120.857143 L142.100164,120.928571 C142.130648,120.95238 142.792597,121.428572 144.138269,121.428572 L144.408274,121.419047 C144.99619,121.5 145.396843,121.733334 145.601525,122.114286 C145.936854,122.738095 145.632008,123.561905 145.627654,123.571428 L145.610234,123.623809 C144.97877,124.95238 145.061514,125.833333 145.065868,125.871428 L145.083288,126 L145.183452,125.933333 C149.311922,123.152381 149.085466,120.966666 149.072401,120.871428 C148.919978,120.038095 149.878062,119.304762 149.986935,119.22381 L149.947741,119.157143 L150,119.214285 L149.995645,119.209524 L150,119.214285 L149.912901,119.07619 Z" id="Path" fill="#000000"></path>
                        <path d="M155.896105,115 L155.882553,115.008788 C155.801243,115.079095 155.105591,115.650344 154.473179,115.650344 C154.278939,115.650344 154.107285,115.597615 153.949182,115.47897 C153.940147,115.474575 153.664596,115.338355 153.113496,115.338355 C152.155845,115.338355 150.507058,115.742624 148.094861,117.654111 L148,117.733207 L148.11293,117.785938 C148.130999,117.794726 148.596273,118.010044 149.472614,118.010044 C149.82044,118.010044 150.186336,117.97489 150.547713,117.904582 L150.592885,117.904582 C151.189158,117.904582 151.618295,118.067168 151.866742,118.383553 C152.286844,118.906466 152.083569,119.693031 152.083569,119.70182 L152.070017,119.754551 C151.595709,121.059635 151.794467,121.850596 151.803501,121.88575 L151.835122,122 L151.934501,121.925298 C155.810277,118.809792 155.290796,116.845573 155.263694,116.75769 C154.997177,116.015065 155.88707,115.215317 155.990966,115.127432 L155.936759,115.070308 L156,115.118643 L155.995483,115.114249 L156,115.118643 L155.896105,115 Z" id="Path" fill="#000000"></path>
                        <path d="M160.866109,110 L160.856545,110.009401 C160.775254,110.103407 160.048416,110.902468 159.335923,110.902468 C159.182905,110.902468 159.044232,110.864865 158.900777,110.784959 C158.895995,110.784959 158.728631,110.728555 158.417812,110.728555 C157.557083,110.728555 155.720861,111.146886 153.090854,113.934195 L153,114.028202 L153.124327,114.070506 C153.138673,114.070506 153.411237,114.155112 153.91333,114.155112 C154.472803,114.155112 155.080095,114.051704 155.696952,113.849589 C156.380752,113.746181 156.892408,113.873091 157.20801,114.220917 C157.662284,114.719154 157.57621,115.522915 157.57621,115.527615 L157.566646,115.626322 C157.274955,117.050529 157.600119,117.844889 157.614465,117.882491 L157.667065,118 L157.753138,117.905994 C161.353855,114.051704 160.512253,112.039954 160.473998,111.950647 C160.081889,111.20329 160.894799,110.230317 160.990437,110.12221 L160.928272,110.065804 L161,110.108108 L160.990437,110.103407 L161,110.108108 L160.866109,110 Z" id="Path" fill="#000000"></path>
                        <path d="M164.859273,105 L164.854734,105.008993 C164.782101,105.121416 164.142024,106.061269 163.424774,106.061269 L163.116083,106.00281 L162.939041,105.989319 C162.416991,105.989319 160.523995,106.259134 158.072633,109.735245 L158,109.838673 L158.127108,109.861158 C158.127108,109.861158 158.226977,109.879146 158.40402,109.879146 C158.767185,109.879146 159.529831,109.802698 160.514915,109.317033 C160.760052,109.245082 160.99157,109.209107 161.191309,109.209107 C162.453307,109.209107 162.503243,110.607644 162.503243,110.666104 L162.507782,110.738055 C162.42153,112.14109 162.83463,112.860596 162.852789,112.892074 L162.916343,113 L162.988976,112.896571 C165.857978,108.772906 164.79572,106.983137 164.750324,106.902192 C164.28275,106.25014 164.913749,105.220348 164.990921,105.098931 L164.922828,105.05846 L164.995461,105.08544 L164.990921,105.080944 L165,105.08544 L164.859273,105 Z" id="Path" fill="#000000"></path>
                        <path d="M167.540685,99.0790335 L167.469384,99.0482989 L167.550192,99.0702525 L167.540685,99.0658609 L167.550192,99.0658609 L167.398083,99 L167.388576,99.0131726 C167.326782,99.1405049 166.75162,100.229418 165.953048,100.229418 L165.734392,100.203073 L165.710624,100.203073 C165.477708,100.203073 163.343429,100.321624 161.047535,104.488474 L161,104.602635 L161.13785,104.602635 C161.308972,104.602635 162.245393,104.558727 163.519305,103.759605 C163.84729,103.6191 164.151507,103.548848 164.422451,103.548848 C165.539502,103.548848 165.767665,104.74753 165.777172,104.80022 L165.796186,104.888035 C165.910268,106.240395 166.442649,106.872668 166.466416,106.903403 L166.547223,107 L166.604264,106.890231 C168.976213,102.521405 167.621493,100.927551 167.554945,100.857299 C166.97503,100.282108 167.483645,99.2019753 167.540685,99.0790335" id="Path" fill="#000000"></path>
                        <path d="M170.108519,93.0568936 L170.040405,93.0350109 L170.112775,93.0437642 L170.108519,93.0437642 L170.112775,93.0437642 L169.972291,93 L169.968035,93.0131294 C169.921206,93.1575503 169.521038,94.3960614 168.746247,94.3960614 L168.648333,94.3873092 C168.567448,94.3960614 166.609183,94.5973748 165.038314,99.1925596 L165,99.3063457 L165.114941,99.2932163 C165.153256,99.2932163 166.030217,99.1925596 167.137063,98.1684903 C167.477631,97.9496714 167.792657,97.8402625 168.073625,97.8402625 C168.946331,97.8402625 169.274127,98.9124721 169.278384,98.9212254 L169.295412,98.9737418 C169.572124,100.321663 170.129804,100.89059 170.155346,100.916849 L170.240489,101 L170.278803,100.886214 C171.824129,96.2822758 170.41503,94.8730862 170.351173,94.8118165 C169.763694,94.3172873 170.070205,93.1925613 170.108519,93.0568936" id="Path" fill="#000000"></path>
                        <path d="M171.946594,87.7694016 C171.269833,87.3525496 171.443475,86.1729493 171.461284,86.039911 L171.390046,86.0266081 L171.465736,86.0266081 L171.456832,86.0266081 L171.465736,86.0266081 L171.309904,86 L171.309904,86.0177384 C171.278737,86.1729493 171.011594,87.5565413 170.12557,87.578714 C170.040975,87.5964523 168.041856,88.0665194 167.026714,92.9002217 L167,93.0199559 L167.120213,92.9889135 C167.160286,92.9800449 168.055214,92.7671846 169.065904,91.5831488 C169.444356,91.2727281 169.804999,91.1130818 170.138928,91.1130818 C170.949261,91.1130818 171.381142,92.0354764 171.390046,92.0487805 L171.412309,92.0975613 C171.879808,93.4146341 172.538761,93.9113082 172.565474,93.9290466 L172.663427,94 L172.685689,93.8802658 C173.674117,89.0421292 172.022285,87.8226167 171.946594,87.7694016" id="Path" fill="#000000"></path>
                        <path d="M109,125.208122 C109,125.208122 116.448127,130.020576 116.977814,127.008843 C117.488913,124.097151 109,125.208122 109,125.208122" id="Path" fill="#000000"></path>
                        <path d="M171.5,76 C170.120849,76 169,77.1172674 169,78.4976912 C169,79.8827326 170.120849,81 171.5,81 C172.879151,81 174,79.8827326 174,78.4976912 C174,77.1172674 172.879151,76 171.5,76" id="Path" fill="#000000"></path>
                        <path d="M151.727788,44.4155246 C152.00727,43.3555338 152.417476,42.5039177 152.687943,41.9331532 C152.890792,41.5028162 153.012502,41.2446125 152.998979,41.095127 L152.994471,41.0543585 L152.962917,41.036239 L152.75556,41 C151.506907,41 146.210274,42.4812687 141.080429,47.0202005 C137.722137,49.9963277 136.459961,53.1944172 135.626023,55.3098681 L135.490791,55.6541384 C133.381152,60.9495593 131.465349,68.0433404 130.987525,70.8880993 C130.671981,69.6876834 130.225712,68.2788927 129.74338,67.6945394 C129.270063,67.123776 128.490219,66.3627574 127.173949,66.3627574 C126.971099,66.3627574 126.754726,66.3808769 126.538353,66.4171159 C125.276177,66.6300202 124.140218,67.6583004 123.635348,69.0353817 L123.617317,69.0761503 C123.279233,70.0002454 122.959181,70.8790402 123.004259,72.4101365 C123.026798,73.2617538 123.265711,74.1631976 123.617317,74.7656703 C124.879493,76.908301 126.826851,78 129.414312,78 C129.74338,78 130.094986,77.9818805 130.446593,77.9456415 C131.451826,77.8414542 132.520168,77.4292366 133.538924,76.7452256 C135.887475,75.1688299 137.785247,73.1439765 139.795713,71.001347 C140.93618,69.7873411 142.117216,68.5325655 143.3839,67.3683885 C144.163744,66.6481385 145.998408,64.9720862 147.864627,63.8758576 C149.257528,63.0604793 150.654937,62.4851864 152.020792,62.1680947 L152.237166,62.0503186 L152.192088,61.7694659 L152.137995,61.6471591 C151.678202,60.4286236 151.295041,58.8748782 150.970482,56.8817342 C150.704523,55.2373901 150.54675,53.6111655 150.636907,51.0110192 C150.690999,49.584109 151.110223,46.7257591 151.727788,44.4155246" id="Path" fill="#969696"></path>
                        <path d="M112.654162,116.260822 C114.168931,115.572224 115.742306,114.856622 117.392321,114.154521 C120.998913,112.628803 123.690333,111.692669 126.994873,110.815045 C130.308429,109.932919 133.640019,109.136304 137.967929,109.109301 L138.044569,109.109301 C139.284334,109.109301 140.862218,109.298329 141.944196,109.568366 C140.438443,105.11273 135.190853,103.578011 133.202718,102.992927 C131.309258,102.443849 126.936266,101.719245 125.507153,101.584226 L125.299774,101.566224 L125.466579,101.444706 C125.935436,101.102657 126.201422,100.774111 126.530524,100.360051 L126.79651,100.031505 L126.82356,100 L126.864134,100.0045 C129.402272,100.301543 132.129758,100.868624 134.356828,101.561723 C136.714638,102.295327 138.729821,103.280968 140.348279,104.500643 C141.24091,105.171238 142.002803,106.012859 142.746662,107.147021 C143.684376,108.573724 144.004461,110.801543 144,112.277754 L144,112.421774 L143.87823,112.340762 C142.760187,111.607158 141.610587,111.152592 140.465493,110.99057 C139.644993,110.878053 138.765887,110.819545 137.846206,110.819545 C135.55602,110.819545 132.999848,111.166095 130.033427,111.872695 C127.274383,112.52979 124.555915,113.348906 121.72474,114.384054 C118.555448,115.540719 116.057882,116.634376 112.613588,118.178097 C112.072599,118.421131 111.554151,118.655164 111.040212,118.893698 C109.358638,119.658808 107.762721,120.392413 106,121 C106.058607,120.360908 106.121723,119.712816 106.193855,119.069223 C108.493056,118.151092 110.602913,117.192456 112.654162,116.260822" id="Path" fill="#969696"></path>
                        <path d="M82.7335089,126 L82.7335089,126 C75.4653522,126 70.9238993,124.081162 69.2145537,123.363881 L68.8983467,123.23139 C66.7536457,122.354206 62.5604778,119.658695 60.3653657,117.493147 C56.8321061,113.998119 54.3024574,109.657888 54.0916539,109.196453 L54,109 L54.1970551,109.095943 C56.0072207,109.954851 61.5797801,111.115292 64.8472438,111.307175 C66.0937374,111.380274 67.0698515,111.412255 67.9359809,111.412255 C69.1412305,111.412255 70.131093,111.343725 71.2171919,111.234077 C71.2859327,111.316313 71.3592558,111.403118 71.432579,111.489922 C71.8908487,112.006182 72.3124568,112.481323 72.7157341,112.924483 C71.5929736,113.029563 70.2823218,113.098092 68.5729761,113.139211 L68.2796835,113.143779 C66.1487286,113.143779 60.1041523,112.696049 58.3260659,112.248321 C61.7355923,116.661651 64.8059987,119.663263 70.1769194,121.888203 C72.1428973,122.701425 74.2005279,123.29992 76.2994025,123.660844 C78.375365,124.0172 80.785863,124.195378 83.6683791,124.195378 C84.0762388,124.195378 84.5024305,124.186241 84.9515342,124.181672 C85.6847657,124.743618 86.3767532,125.273583 87,125.780704 C85.5564502,125.922333 84.1266488,126 82.7335089,126" id="Path" fill="#969696"></path>
                        <path d="M56.8790027,87.2123695 C56.4992375,87.2260534 56.0782919,87.2306155 55.6207423,87.2306155 C52.0289786,87.2306155 47.2979157,86.801861 42.9694963,86.081189 C39.0620237,85.4334976 36.2480937,84.7447544 34.7885115,84.083379 C34.8845966,84.2338987 34.9989837,84.4163471 35.1270976,84.6261634 C36.4539907,86.7790553 39.5653276,91.8055098 43.5871885,95.1215108 C47.119471,98.0270023 51.5027963,101.224411 57.2541939,102.866447 C59.9857645,103.641854 62.2780886,104.034118 65.7691908,104.298668 C66.1718344,104.86882 66.5790532,105.43441 67,105.995439 C66.8764613,105.995439 66.7529227,106 66.629384,106 C60.5210983,106 55.3416362,104.677249 49.8418912,101.7079 C47.805796,100.608649 45.9206918,99.3497542 44.2414846,97.9722677 C43.0152518,96.9688012 41.2170824,95.3997444 39.6110832,93.6345553 C36.6598888,90.3869727 33.8779876,86.3183732 31.1052367,81.2006933 L31,81 L31.2104734,81.0912242 C32.377225,81.6066408 33.7636005,82.0490792 35.0813432,82.4550268 C38.1240474,83.3855139 41.1987804,84.0788181 44.4931372,84.5759898 C48.4600909,85.1735088 51.6766646,85.4289367 55.2547027,85.4289367 C55.5887136,85.4289367 55.931876,85.4289367 56.2750385,85.4243746 C56.4672087,86.0173327 56.6685305,86.6148517 56.8790027,87.2123695" id="Path" fill="#969696"></path>
                        <path d="M41.333141,57.9626173 L41.2040344,57.9489989 C33.8080689,57.1909211 25.4622469,55.2253673 20.5608068,53.7773029 C17.0149845,52.7287056 13.6443802,51.575701 10.5550424,50.3591456 L10.4351582,50.309212 C11.5048989,52.5879844 12.7636882,54.8576773 14.1746387,57.050201 C17.9786742,62.9514016 22.4881837,67.7313758 27.5694524,71.2539393 C34.1953888,75.8432576 41.6835733,77.7679572 43.786167,78.1765025 L43.786167,78.1447265 L43.8599422,78.1447265 L43.8968298,78.1492668 L44.1688762,78.2037383 C45.081844,78.3807746 49.8219017,79.2614161 53.6904899,79.2614161 C54.0178677,79.2614161 54.3314124,79.2568758 54.6311239,79.2432585 C54.6726222,79.4566099 54.7141204,79.6654211 54.7510081,79.8651541 C54.8293951,80.2373832 54.9123916,80.6186927 55,81 C54.9492792,81 54.8985585,81 54.8478389,81 C53.0541781,81 49.2409224,80.7094793 47,80.4053413 C44.0213258,79.996796 38.294524,78.961816 33.3884721,76.6240331 C25.0195956,72.6429908 18.3244958,66.6600807 12.9112387,58.3439257 C11.426513,56.0560752 9.22708848,52.3065419 7.19827001,47.4267029 L7.11527348,47.2224296 L7.10144033,47.2178905 L7.09682968,47.1815754 L7,47 L7.17982621,47.0817084 L7.22132565,47.0817084 L7.23054696,47.1044062 C9.3377513,48.0259006 11.408068,48.8656879 13.3861669,49.6010678 C15.6916425,50.4590115 26.448991,53.9997337 32.9596539,55.0165561 C40.1711814,56.1468629 46.5112394,56.718825 51.8138325,56.718825 C52.8005766,56.718825 53.7550426,56.6961283 54.6634009,56.6552742 C54.5711818,57.2136178 54.4835735,57.7628843 54.4097983,58.3076106 C53.0265129,58.4619492 51.5832856,58.5391196 50.0247835,58.5391196 C46.9446682,58.5391196 43.9613837,58.2349805 41.333141,57.9626173" id="Path" fill="#969696"></path>
                        <path d="M169,120 C167.343419,120 166,121.343419 166,123 C166,124.656581 167.343419,126 169,126 C170.656581,126 172,124.656581 172,123 C172,121.343419 170.656581,120 169,120 Z M169.000001,125.355522 C167.697429,125.355522 166.63994,124.302572 166.63994,123 C166.63994,121.697428 167.697429,120.639939 169.000001,120.639939 C170.302573,120.639939 171.355537,121.697428 171.355537,123 C171.360061,124.302572 170.302573,125.355522 169.000001,125.355522 Z" id="Shape" fill="#FFFFFF"></path>
                        <path d="M170,122.892857 C170,122.400794 169.631675,122 169.174954,122 L168,122 L168,125 L168.52302,125 L168.52302,123.777778 L168.898711,123.777778 L169.425413,125 L170,125 L169.451196,123.730158 C169.771639,123.607143 170,123.277778 170,122.892857 Z M169.174954,123.218254 L168.52302,123.218254 L168.52302,122.563492 L169.174954,122.563492 C169.344383,122.563492 169.480662,122.710317 169.480662,122.892857 C169.480662,123.071428 169.344383,123.218254 169.174954,123.218254 Z" id="Shape" fill="#FFFFFF"></path>
                    </g>
                </g>
            </g>
        </g>
    </g>
</svg>