<?xml version="1.0" encoding="UTF-8"?>
<svg width="331px" height="158px" viewBox="0 0 331 158" version="1.1" xmlns="http://www.w3.org/2000/svg" xmlns:xlink="http://www.w3.org/1999/xlink">
    <title>ericsson-logo</title>
    <defs>
        <rect id="path-1" x="0" y="0" width="331" height="158"></rect>
    </defs>
    <g id="0.0-Homepage-(release-2.0)" stroke="none" stroke-width="1" fill="none" fill-rule="evenodd">
        <g id="Homepage---Large-Desktop-example-Copy" transform="translate(-1421.000000, -2399.000000)">
            <g id="ericsson-logo" transform="translate(1421.000000, 2399.000000)">
                <mask id="mask-2" fill="white">
                    <use xlink:href="#path-1"></use>
                </mask>
                <g id="Rectangle-Copy-8"></g>
                <g mask="url(#mask-2)" fill="#393939" fill-rule="nonzero">
                    <g transform="translate(92.000000, 14.000000)">
                        <path d="M105.554407,5.82256322 C104.786002,3.54942606 103.182897,1.81602941 101.203577,0.818787162 C99.2074827,-0.162486237 96.8519481,-0.407605042 92.942032,0.900227372 L48.5774649,15.6824052 C44.6515736,16.991036 42.9174719,18.5934899 41.9198243,20.5720054 C40.9221767,22.550521 40.6929334,24.9050982 41.4453627,27.1782353 C42.2145656,29.4505739 43.8176712,31.1839708 45.7969914,32.1812128 C47.7922866,33.1624862 50.1478212,33.407605 54.0577373,32.0997728 L98.4223044,17.3175948 C102.332221,16.0097626 104.082297,14.4073087 105.079945,12.428793 C106.078391,10.4502776 106.306836,8.094902 105.554407,5.82256322 Z" id="Path"></path>
                        <path d="M105.554407,32.8220936 C104.786002,30.5489839 103.182897,28.8164064 101.203577,27.8183781 C99.2074827,26.8379149 96.8519481,26.5920007 92.942032,27.9006156 L48.5774649,42.6826146 C44.6515736,43.9904312 42.9174719,45.5928658 41.9198243,47.5713573 C40.9221767,49.5498488 40.6929334,51.9043977 41.4453627,54.1775073 C42.2145656,56.4506168 43.8176712,58.1839927 45.7969914,59.1812226 C47.7922866,60.1624844 50.1478212,60.4076 54.0577373,59.0997836 L98.4223044,44.3177844 C102.332221,43.0091695 104.082297,41.4067351 105.079945,39.4282434 C106.078391,37.4497519 106.306836,35.095203 105.554407,32.8220936 Z" id="Path"></path>
                        <path d="M105.554407,59.8220936 C104.786002,57.5489839 103.182897,55.8164064 101.203577,54.8183781 C99.2074827,53.8379149 96.8519481,53.5920007 92.942032,54.9006156 L48.5774649,69.6826146 C44.6515736,70.9904312 42.9174719,72.5928658 41.9198243,74.5713573 C40.9221767,76.5498488 40.6929334,78.9043977 41.4453627,81.1775073 C42.2145656,83.4506168 43.8176712,85.1839927 45.7969914,86.1812226 C47.7922866,87.1624844 50.1478212,87.4076 54.0577373,86.0997836 L98.4223044,71.3177844 C102.332221,70.0091695 104.082297,68.4067351 105.079945,66.4282434 C106.078391,64.4497519 106.306836,62.095203 105.554407,59.8220936 Z" id="Path"></path>
                        <polygon id="Path" points="0 108 15.8244915 108 15.8244915 112.374343 5.59840793 112.374343 5.59840793 116.167805 15.411348 116.167805 15.411348 120.687172 5.59840793 120.687172 5.59840793 124.593342 16 124.593342 16 129 0 129"></polygon>
                        <polygon id="Path" points="41 108 47 108 47 129 41 129"></polygon>
                        <path d="M67.9158861,109.17815 L67.5101608,113.667887 C62.6802159,111.002746 55.2831514,111.842502 55.1652273,118.851508 C55.0299856,125.843167 62.7816473,126.876895 67.6965307,124.486941 L68,129.072876 C59.319788,131.656801 48.9498788,129.024777 49,118.834949 C49.0513102,108.887192 59.5053331,106.125853 67.9158861,109.17815 Z" id="Path"></path>
                        <path d="M84.9696784,108.865623 L84.5713415,113.2373 C81.6134266,111.656407 75.9807321,111.60757 75.9807321,114.091943 C75.9807321,117.769665 86,115.124604 86,122.996772 C86,130.7563 76.4626306,130.836645 70.2652875,129.046227 L70.697698,124.416188 C74.5691106,126.175099 80.0687557,126.561854 80.0687557,123.512708 C80.0687557,120.173693 70,122.060997 70,114.55983 C70.0162255,108.41349 77.8588378,106.768006 84.9696784,108.865623 Z" id="Path"></path>
                        <path d="M102.95158,108.865623 L102.569082,113.2373 C99.6089812,111.656407 93.9705788,111.60757 93.9705788,114.091943 C93.9705788,117.769665 104,115.124604 104,122.996772 C104,130.7563 94.4367234,130.836645 88.2493419,129.046227 L88.6984326,124.416188 C92.5737687,126.175099 98.0789869,126.561854 98.0789869,123.512708 C98.0789869,120.173693 88,122.060997 88,114.55983 C87.9829735,108.41349 95.8335335,106.768006 102.95158,108.865623 Z" id="Path"></path>
                        <polygon id="Path" points="128 108 135.081488 108 141.847301 121.558888 141.847301 108 147 108 147 129 140.313686 129 133.185116 115.199144 133.185116 129 128 129"></polygon>
                        <path d="M114.475813,108 C120.436162,108 125,111.46755 125,119.048434 C125,126.289887 120.419508,130 114.475813,130 C108.547185,130 104,126.371004 104,119.048434 C104,111.46755 108.514671,108 114.475813,108 Z M109.879461,119.048434 C109.879461,122.241919 111.259318,125.870915 114.475813,125.854433 C117.691515,125.854433 119.055512,122.241919 119.071372,119.048434 C119.088025,116.161303 117.691515,112.241653 114.475813,112.241653 C111.259318,112.225953 109.879461,115.854949 109.879461,119.048434 Z" id="Shape"></path>
                        <path d="M25.7247397,116.861395 L29.0010851,116.861395 C30.4706165,116.877946 31.8049046,116.038545 31.7884115,114.489003 C31.7710939,113.116799 30.6058595,112.148138 29.0860244,112.16469 L25.7247397,112.16469 L25.7247397,116.861395 Z M20,108 L30.7575956,108 C33.6793405,108 37.7498266,109.226392 37.7498266,113.584972 C37.7498266,116.377458 36.432856,117.943552 33.9160157,118.669456 C34.0339411,118.653693 35.3517361,119.218811 35.8918837,120.784116 C35.9092016,120.832983 38.9661893,128.984237 39,129 L32.6666667,129 L30.4029948,122.689123 C30.0483943,121.720462 29.3053822,121.074951 28.2242623,121.074951 C27.2957032,121.074951 25.826172,121.010321 25.826172,121.074951 L25.826172,129 L20,129 L20,108 Z" id="Shape"></path>
                    </g>
                </g>
            </g>
        </g>
    </g>
</svg>