<?xml version="1.0" encoding="UTF-8"?>
<svg width="23px" height="21px" viewBox="0 0 23 21" version="1.1" xmlns="http://www.w3.org/2000/svg" xmlns:xlink="http://www.w3.org/1999/xlink">
    <title>insights-icon</title>
    <defs>
        <polygon id="path-1" points="0 0 20.2278375 0 20.2278375 17.3692452 0 17.3692452"></polygon>
        <polygon id="path-3" points="3.60401583e-15 0 10.8609482 0 10.8609482 14.0446318 3.60401583e-15 14.0446318"></polygon>
    </defs>
    <g id="Symbols" stroke="none" stroke-width="1" fill="none" fill-rule="evenodd">
        <g id="mobile-insights-active" transform="translate(-25.000000, -15.000000)">
            <g id="insights-icon" transform="translate(25.000000, 15.000000)">
                <path d="M0.770873162,17.0205766 C0.770873162,17.2081921 0.923039202,17.3563096 1.11578285,17.3563096 L2.97220855,17.3563096 C3.39827346,17.3563096 3.74318315,17.6920426 3.74318315,18.1067716 L3.74318315,19.499076 L6.47202748,17.5044271 C6.60390472,17.4056821 6.76621516,17.3563096 6.93867001,17.3563096 L19.1119533,17.3563096 C19.3046969,17.3563096 19.4568629,17.2081921 19.4568629,17.0205766 L19.4568629,4.71694981 C19.4568629,4.52933432 19.3046969,4.38121682 19.1119533,4.38121682 L1.11578285,4.38121682 C0.923039202,4.38121682 0.770873162,4.52933432 0.770873162,4.71694981 L0.770873162,17.0205766 Z M1.11578285,4.00598583 L19.1119533,4.00598583 C19.5177294,4.00598583 19.8423502,4.32196982 19.8423502,4.71694981 L19.8423502,17.0205766 C19.8423502,17.4155566 19.5177294,17.7315406 19.1119533,17.7315406 L6.93867001,17.7315406 C6.85751478,17.7315406 6.77635956,17.7611641 6.70534874,17.8105366 L3.35769585,20.2505255 L3.35769585,18.1067716 C3.35769585,17.8994071 3.18524101,17.7315406 2.97220855,17.7315406 L1.11578285,17.7315406 C0.720151148,17.7315406 0.385385859,17.4155566 0.385385859,17.0205766 L0.385385859,4.71694981 C0.385385859,4.32196982 0.720151148,4.00598583 1.11578285,4.00598583 L1.11578285,4.00598583 Z" id="Fill-1" fill="#FFFFFF"></path>
                <g id="Group-5" transform="translate(0.000000, 3.630755)">
                    <mask id="mask-2" fill="white">
                        <use xlink:href="#path-1"></use>
                    </mask>
                    <g id="Clip-4"></g>
                    <path d="M0.770873162,13.3898217 C0.770873162,13.5774372 0.923039202,13.7255547 1.11578285,13.7255547 L2.97220855,13.7255547 C3.39827346,13.7255547 3.74318315,14.0612877 3.74318315,14.4760167 L3.74318315,15.8683212 L6.47202748,13.8736722 C6.60390472,13.7749272 6.76621516,13.7255547 6.93867001,13.7255547 L19.1119533,13.7255547 C19.3046969,13.7255547 19.4568629,13.5774372 19.4568629,13.3898217 L19.4568629,1.08619498 C19.4568629,0.898579483 19.3046969,0.750461986 19.1119533,0.750461986 L1.11578285,0.750461986 C0.923039202,0.750461986 0.770873162,0.898579483 0.770873162,1.08619498 L0.770873162,13.3898217 Z M1.11578285,0 L19.1119533,0 C19.7307618,0 20.2278375,0.483850491 20.2278375,1.08619498 L20.2278375,13.3898217 C20.2278375,13.9921662 19.7307618,14.4760167 19.1119533,14.4760167 L6.93867001,14.4760167 L2.97220855,17.3692452 L2.97220855,14.4760167 L1.11578285,14.4760167 C0.496974288,14.4760167 -0.000101444027,13.9921662 -0.000101444027,13.3898217 L-0.000101444027,1.08619498 C-0.000101444027,0.483850491 0.496974288,0 1.11578285,0 L1.11578285,0 Z" id="Fill-3" fill="#000000" mask="url(#mask-2)"></path>
                </g>
                <path d="M16.59675,8.85387151 L3.97204088,8.85387151 C3.77016727,8.85387151 3.60684238,8.70575401 3.60684238,8.52208832 C3.60684238,8.33941007 3.77016727,8.19030512 3.97204088,8.19030512 L16.59675,8.19030512 C16.7986237,8.19030512 16.9619485,8.33941007 16.9619485,8.52208832 C16.9619485,8.70575401 16.7986237,8.85387151 16.59675,8.85387151" id="Fill-6" fill="#000000"></path>
                <path d="M10.402172,13.5789184 L3.92395641,13.5789184 C3.74947268,13.5789184 3.60643661,13.4308009 3.60643661,13.2471352 C3.60643661,13.064457 3.74947268,12.915352 3.92395641,12.915352 L10.402172,12.915352 C10.5766557,12.915352 10.7196918,13.064457 10.7196918,13.2471352 C10.7196918,13.4308009 10.5766557,13.5789184 10.402172,13.5789184" id="Fill-8" fill="#000000"></path>
                <path d="M15.3702918,11.9993934 L15.0537864,12.4170848 L12.776368,13.5546271 C12.7205738,13.5812883 12.674924,13.556602 12.6607218,13.5408028 C12.6414474,13.5319158 12.605942,13.4943927 12.615072,13.4321833 L13.0847578,10.8509891 L13.37083,10.4737832 L15.3702918,11.9993934 Z" id="Fill-10" fill="#15B28D"></path>
                <polygon id="Fill-12" fill="#15B28D" points="21.5486388 3.33027381 15.6496686 11.616954 13.6502068 10.0923313 19.5420759 1.79972634"></polygon>
                <path d="M22.5045458,2.05261228 L21.8340008,2.94625451 L19.827438,1.41669449 L20.497983,0.522064805 C20.532474,0.468742506 20.6024703,0.459855456 20.6562357,0.500340905 L22.4822282,1.89264538 C22.5349791,1.93313083 22.5461379,2.00422723 22.5045458,2.05261228" id="Fill-14" fill="#15B28D"></path>
                <g id="Group-18" transform="translate(12.139052, 0.000000)">
                    <mask id="mask-4" fill="white">
                        <use xlink:href="#path-3"></use>
                    </mask>
                    <g id="Clip-17"></g>
                    <path d="M10.365494,2.05261228 L9.69494899,2.94625451 L7.68838613,1.41669449 L8.35893115,0.522064805 C8.39342212,0.468742506 8.4634185,0.459855456 8.51718383,0.500340905 L10.3431763,1.89264538 C10.3959272,1.93313083 10.4070861,2.00422723 10.365494,2.05261228 L10.365494,2.05261228 Z M3.5109211,11.6170528 L1.51044488,10.09243 L7.40332841,1.79982508 L9.40989127,3.33037255 L3.5109211,11.6170528 Z M2.91544466,12.4168873 L0.637011811,13.5544297 C0.581217596,13.5810908 0.536582224,13.5564046 0.52136562,13.5406054 C0.502091255,13.5317183 0.467600286,13.4941952 0.475715808,13.4319859 L0.945401653,10.8507916 L1.23147381,10.4735857 L3.23093558,11.9991959 L2.91544466,12.4168873 Z M10.628234,1.51543949 L8.79716935,0.118197763 C8.5415304,-0.0763298835 8.17227414,-0.0249824845 7.97750161,0.229779611 L7.16696383,1.31893694 L1.00423919,9.97986072 C0.999166987,9.98084817 0.994094786,9.98776032 0.989022585,9.99467247 L0.978878182,10.0084968 L0.570058753,10.5644311 C0.514264538,10.6325652 0.478759129,10.7214357 0.461513644,10.8083313 L0.00907328349,13.3391656 C-0.0304898871,13.5613418 0.0618241776,13.7845055 0.237322344,13.9227485 C0.364127378,14.020506 0.51933674,14.060004 0.67150278,14.0392676 C0.735412517,14.0303805 0.792221172,14.0106315 0.855116469,13.9839704 L3.13253488,12.8454406 C3.21064678,12.8049551 3.27962872,12.7466956 3.33440849,12.6736243 L3.750329,12.1206523 L3.7604734,12.1078154 C3.7655456,12.1009033 3.77061781,12.0939911 3.76960337,12.0880664 L9.93841465,3.4320799 L10.747938,2.34391002 C10.9366239,2.08223577 10.883873,1.70996713 10.628234,1.51543949 L10.628234,1.51543949 Z" id="Fill-16" fill="#15B28D" mask="url(#mask-4)"></path>
                </g>
            </g>
        </g>
    </g>
</svg>