<svg id="Layer_1" data-name="Layer 1" xmlns="http://www.w3.org/2000/svg" viewBox="0 0 224.57 103.9"><defs><style>.cls-1{fill:#18b28d;}.cls-2{fill:#231f20;}</style></defs><path class="cls-1" d="M98.9,80.06a18.36,18.36,0,0,1-4.3-.34c-1.32,5.61-4.73,9.54-10.4,12a24.76,24.76,0,0,1-9.51,1.67c-1.23,0-3.8,0-7.14,0-3.83,0-8.68,0-13.64,0s-9.81,0-13.65,0c-3.33,0-5.9,0-7.13,0a24.76,24.76,0,0,1-9.51-1.67c-6.11-2.63-9.61-7-10.68-13.32-.52-3-.83-37.17-.54-49.56.2-8.34,3.84-14.08,10.83-17A24.9,24.9,0,0,1,31.87,10c1.56-.06,11.72-.1,22-.11S74.39,10,76,10a24.9,24.9,0,0,1,8.64,1.75c7,3,10.63,8.71,10.82,17.05.08,3.07.11,7.47.12,12.41a22.09,22.09,0,0,1,3.61-.29,21.28,21.28,0,0,1,3.19.25c0-5,0-9.4-.11-12.53-.26-11.1-5.43-19.11-15-23.16a31.44,31.44,0,0,0-11-2.28C73.4,3.11,63,3.07,53.91,3.06s-19.49,0-22.3.16a31.55,31.55,0,0,0-11,2.28C11,9.55,5.85,17.56,5.59,28.66c-.3,12.82,0,47.43.63,50.86C7.67,88.06,12.76,94.44,20.93,98A31.74,31.74,0,0,0,33,100.18c.72,0,2.64,0,5.41,0,4,0,9.67,0,15.48,0s11.43,0,15.47,0c2.78,0,4.7,0,5.41,0A31.79,31.79,0,0,0,86.89,98C95,94.47,100,88.18,101.54,79.76A21.12,21.12,0,0,1,98.9,80.06Z"/><circle class="cls-1" cx="53.92" cy="33.7" r="4.62"/><rect class="cls-2" x="50.16" y="46.89" width="7.45" height="25.8"/><polygon class="cls-2" points="74.58 60.2 74.22 62.26 73.78 60.27 69.03 46.89 60.43 46.89 71.62 72.94 76.2 72.94 86.98 46.89 78.93 46.89 74.58 60.2"/><path class="cls-2" d="M124,47.42a6.87,6.87,0,0,0-2,2.09V46.89h-7.44v25.8H122V56.49a1.32,1.32,0,0,1,.42-.93,6.06,6.06,0,0,1,1.08-.87,8.6,8.6,0,0,1,1.83-.95,6.26,6.26,0,0,1,4.18.17l.58.21,1-7.07-.39-.13C127.83,46,125.69,46.24,124,47.42Z"/><path class="cls-2" d="M148,58.56a12.12,12.12,0,0,0-2.84-1.47c-1-.37-1.9-.7-2.72-1a9.72,9.72,0,0,1-2-1,1.15,1.15,0,0,1-.62-1c0-.81.27-1.74,2.38-1.74a12.11,12.11,0,0,1,3.38.48c1.14.32,2.09.64,2.84.93l.5.19,1.71-5.55-.35-.2a14.76,14.76,0,0,0-3.69-1.39,20.69,20.69,0,0,0-5.23-.61c-2.86,0-5.09.69-6.63,2.06a7.58,7.58,0,0,0-2.35,6,7.48,7.48,0,0,0,.91,3.9,8.4,8.4,0,0,0,2.21,2.48,10.72,10.72,0,0,0,2.86,1.51c1,.34,1.89.68,2.71,1a9.32,9.32,0,0,1,2,1,1.36,1.36,0,0,1,.63,1.18,1.5,1.5,0,0,1-.63,1.41,3.74,3.74,0,0,1-2,.47,12,12,0,0,1-3.71-.59,16.17,16.17,0,0,1-2.94-1.23l-.51-.28-2.13,5.74.35.21a15.58,15.58,0,0,0,3.87,1.62,18.06,18.06,0,0,0,5.07.69c3.32,0,5.86-.77,7.55-2.28a8.05,8.05,0,0,0,2.57-6.3,7.29,7.29,0,0,0-.92-3.83A7.91,7.91,0,0,0,148,58.56Z"/><path class="cls-2" d="M175.55,50a10,10,0,0,0-3.8-2.79,13.6,13.6,0,0,0-5.36-1c-3.83,0-6.86,1.19-9,3.56s-3.2,5.72-3.2,10a19.46,19.46,0,0,0,.74,5.5,11.53,11.53,0,0,0,2.28,4.32A10.54,10.54,0,0,0,161,72.4a13.6,13.6,0,0,0,5.36,1c3.84,0,6.86-1.2,9-3.56s3.18-5.72,3.18-10a19.46,19.46,0,0,0-.74-5.5A11.94,11.94,0,0,0,175.55,50Zm-5.8,15.34a3.75,3.75,0,0,1-3.36,1.62,3.9,3.9,0,0,1-2-.51A3.77,3.77,0,0,1,163,65a8.13,8.13,0,0,1-.84-2.29,14,14,0,0,1-.29-2.92c0-2.59.42-4.46,1.24-5.55a3.88,3.88,0,0,1,3.32-1.59,3.53,3.53,0,0,1,3.43,1.85,11.11,11.11,0,0,1,1.08,5.29C170.9,62.32,170.51,64.18,169.75,65.31Z"/><path class="cls-2" d="M198.93,37.55a20.23,20.23,0,0,0-6.77-1,8,8,0,0,0-6.11,2.27c-1.41,1.5-2.12,3.9-2.12,7.16v.89H180.5v6.45h3.43V72.69h7.44V53.34h5.46V46.89h-5.45c0-.58,0-1.1.07-1.57a4.15,4.15,0,0,1,.3-1.37,1.38,1.38,0,0,1,.62-.68,6.33,6.33,0,0,1,3.07-.12,10.33,10.33,0,0,1,1.92.5l.52.18,1.47-6.13Z"/><path class="cls-2" d="M215.27,65.68l-.56.25a12,12,0,0,1-1.54.57,6,6,0,0,1-1.58.18,1.43,1.43,0,0,1-1.5-.83,8.92,8.92,0,0,1-.48-3.48v-9h6V46.89h-6V40.23l-7.44,2.12v4.54h-3.43v6.45h3.43v12c0,2.8.58,4.86,1.74,6.12s3,1.92,5.4,1.92a15.2,15.2,0,0,0,3.74-.46,16.53,16.53,0,0,0,3.22-1.13l.36-.17Z"/><path class="cls-2" d="M111,58.77v-.06a15.36,15.36,0,0,0-.68-4.1,11,11,0,0,0-4.81-6.27,9.32,9.32,0,0,0-2.08-.89,14.27,14.27,0,0,0-3.8-.51c-3.9,0-7,1.15-9.14,3.43s-3.27,5.68-3.27,10.16c0,4.17,1,7.5,2.89,9.91s5,3.68,9.17,3.68a18.2,18.2,0,0,0,5.58-.84,13.16,13.16,0,0,0,4.2-2.09l.32-.26-2.59-5.11-.47.36a10,10,0,0,1-5.8,1.79c-2,0-3.5-.48-4.37-1.43a6.42,6.42,0,0,1-1.44-3.87h15.91A11.64,11.64,0,0,0,111,58.77Zm-7.93-1.12H94.91a6.63,6.63,0,0,1,1.28-3.23,3.57,3.57,0,0,1,2.34-1.25,5.14,5.14,0,0,1,.9-.07h.12a5.06,5.06,0,0,1,.9.07,3.57,3.57,0,0,1,2.34,1.25,6.63,6.63,0,0,1,1.29,3.23Z"/></svg>