<?xml version="1.0" encoding="UTF-8"?>
<svg width="21px" height="20px" viewBox="0 0 21 20" version="1.1" xmlns="http://www.w3.org/2000/svg" xmlns:xlink="http://www.w3.org/1999/xlink">
    <title>projects-icon</title>
    <defs>
        <polygon id="path-1" points="-1.77635684e-15 0 9.4 0 9.4 6.71758691 -1.77635684e-15 6.71758691"></polygon>
        <polygon id="path-3" points="0 0 9.2498 0 9.2498 6.71799591 0 6.71799591"></polygon>
    </defs>
    <g id="Symbols" stroke="none" stroke-width="1" fill="none" fill-rule="evenodd">
        <g id="mobile-projects-active" transform="translate(-25.000000, -16.000000)">
            <g id="projects-icon" transform="translate(25.000000, 16.000000)">
                <g id="Group-3" transform="translate(11.600000, 13.282413)">
                    <mask id="mask-2" fill="white">
                        <use xlink:href="#path-1"></use>
                    </mask>
                    <g id="Clip-2"></g>
                    <path d="M8.65,5.69529652 C8.65,5.83844581 8.54,5.95092025 8.4,5.95092025 L1,5.95092025 C0.86,5.95092025 0.74,5.83844581 0.74,5.69529652 L0.74,1.02249489 C0.74,0.879345603 0.86,0.766871166 1,0.766871166 L8.4,0.766871166 C8.54,0.766871166 8.65,0.879345603 8.65,1.02249489 L8.65,5.69529652 Z M8.4,0 L1,0 C0.44,0 0,0.460122699 0,1.02249489 L0,5.69529652 C0,6.25766871 0.44,6.71779141 1,6.71779141 L8.4,6.71779141 C8.95,6.71779141 9.4,6.25766871 9.4,5.69529652 L9.4,1.02249489 C9.4,0.460122699 8.95,0 8.4,0 L8.4,0 Z" id="Fill-1" fill="#000000" mask="url(#mask-2)"></path>
                </g>
                <g id="Group-6">
                    <mask id="mask-4" fill="white">
                        <use xlink:href="#path-3"></use>
                    </mask>
                    <g id="Clip-5"></g>
                    <path d="M8.5098,5.68527607 C8.5098,5.82842536 8.3898,5.95112474 8.2398,5.95112474 L1.0098,5.95112474 C0.8698,5.95112474 0.7498,5.82842536 0.7498,5.68527607 L0.7498,1.04314928 C0.7498,0.889775051 0.8698,0.76605317 1.0098,0.76605317 L8.2398,0.76605317 C8.3898,0.76605317 8.5098,0.889775051 8.5098,1.04314928 L8.5098,5.68527607 Z M8.2398,-0.00081799591 L1.0098,-0.00081799591 C0.4498,-0.00081799591 -0.0002,0.469529652 -0.0002,1.04314928 L-0.0002,5.68527607 C-0.0002,6.25787321 0.4498,6.71799591 1.0098,6.71799591 L8.2398,6.71799591 C8.7998,6.71799591 9.2498,6.25787321 9.2498,5.68527607 L9.2498,1.04314928 C9.2498,0.469529652 8.7998,-0.00081799591 8.2398,-0.00081799591 L8.2398,-0.00081799591 Z" id="Fill-4" fill="#000000" mask="url(#mask-4)"></path>
                </g>
                <path d="M20.0146,10.7937628 L12.5826,10.7937628 C12.0376,10.7937628 11.5976,10.3428425 11.5976,9.78660532 L11.5976,1.01155419 C11.5976,0.455316973 12.0376,0.00337423313 12.5826,0.00337423313 L20.0146,0.00337423313 C20.5586,0.00337423313 20.9996,0.455316973 20.9996,1.01155419 L20.9996,9.78660532 C20.9996,10.3428425 20.5586,10.7937628 20.0146,10.7937628" id="Fill-7" fill="#18B28D"></path>
                <path d="M8.6602,18.9877301 C8.6602,19.1206544 8.5502,19.2331288 8.4202,19.2331288 L0.9902,19.2331288 C0.8502,19.2331288 0.7502,19.1206544 0.7502,18.9877301 L0.7502,10.2147239 C0.7502,10.0817996 0.8502,9.96932515 0.9902,9.96932515 L8.4202,9.96932515 C8.5502,9.96932515 8.6602,10.0817996 8.6602,10.2147239 L8.6602,18.9877301 Z M8.4202,9.20245399 L0.9902,9.20245399 C0.4402,9.20245399 0.0002,9.66257669 0.0002,10.2147239 L0.0002,18.9877301 C0.0002,19.5398773 0.4402,20 0.9902,20 L8.4202,20 C8.9602,20 9.4002,19.5398773 9.4002,18.9877301 L9.4002,10.2147239 C9.4002,9.66257669 8.9602,9.20245399 8.4202,9.20245399 L8.4202,9.20245399 Z" id="Fill-9" fill="#000000"></path>
            </g>
        </g>
    </g>
</svg>