<?xml version="1.0" encoding="UTF-8"?>
<svg width="25px" height="19px" viewBox="0 0 25 19" version="1.1" xmlns="http://www.w3.org/2000/svg" xmlns:xlink="http://www.w3.org/1999/xlink">
    <title>services-icon</title>
    <defs>
        <polygon id="path-1" points="0 0 24.9999004 0 24.9999004 15.1451288 0 15.1451288"></polygon>
        <polygon id="path-3" points="0 18.0148805 25 18.0148805 25 0 0 0"></polygon>
    </defs>
    <g id="Symbols" stroke="none" stroke-width="1" fill="none" fill-rule="evenodd">
        <g id="mobile-services-active" transform="translate(-24.000000, -17.000000)">
            <g id="services-icon" transform="translate(24.000000, 17.000000)">
                <g id="Group-3" transform="translate(0.000100, 0.000000)">
                    <mask id="mask-2" fill="white">
                        <use xlink:href="#path-1"></use>
                    </mask>
                    <g id="Clip-2"></g>
                    <path d="M23.9538498,-9.8511951e-05 L1.04615017,-9.8511951e-05 C0.468276742,-9.8511951e-05 0,0.463892778 0,1.03427697 L0,14.1107534 C0,14.6811376 0.468276742,15.1451288 1.04615017,15.1451288 L23.9538498,15.1451288 C24.5317233,15.1451288 25,14.6811376 25,14.1107534 L25,1.03427697 C25,0.463892778 24.5317233,-9.8511951e-05 23.9538498,-9.8511951e-05 M23.9538498,0.741696479 C24.1172485,0.741696479 24.2497609,0.873702494 24.2497609,1.03427697 L24.2497609,14.1107534 C24.2497609,14.2713278 24.1172485,14.4033339 23.9538498,14.4033339 L1.04615017,14.4033339 C0.882751475,14.4033339 0.75023912,14.2713278 0.75023912,14.1107534 L0.75023912,1.03427697 C0.75023912,0.873702494 0.882751475,0.741696479 1.04615017,0.741696479 L23.9538498,0.741696479" id="Fill-1" fill="#000000" mask="url(#mask-2)"></path>
                </g>
                <path d="M18.4784991,17.1682688 L5.52516738,17.1682688 C5.31793002,17.1682688 5.14954966,17.0027687 5.14954966,16.7978638 C5.14954966,16.592959 5.31793002,16.4274589 5.52516738,16.4274589 L18.4784991,16.4274589 C18.6857365,16.4274589 18.8541168,16.592959 18.8541168,16.7978638 C18.8541168,17.0027687 18.6857365,17.1682688 18.4784991,17.1682688" id="Fill-4" fill="#000000"></path>
                <path d="M16.0723537,19 C15.4506416,19 14.9474932,18.5015295 14.9474932,17.8878001 L14.9474932,6.32052678 C14.9474932,5.70679732 15.4506416,5.20832685 16.0723537,5.20832685 L21.2612586,5.20832685 C21.8829707,5.20832685 22.3861191,5.70679732 22.3861191,6.32052678 L22.3861191,17.8878001 C22.3861191,18.5015295 21.8829707,19 21.2612586,19 L16.0723537,19 Z" id="Fill-6" fill="#18B28D"></path>
                <mask id="mask-4" fill="white">
                    <use xlink:href="#path-3"></use>
                </mask>
                <g id="Clip-9"></g>
                <polygon id="Fill-8" fill="#000000" mask="url(#mask-4)" points="12.0018333 17.029761 12.9981667 17.029761 12.9981667 15.059522 12.0018333 15.059522"></polygon>
            </g>
        </g>
    </g>
</svg>